<svg xmlns="http://www.w3.org/2000/svg" width="1940" height="540" viewBox="0 0 1940 540">
<g>
<path d="M 810.63 347.22 C799.76,349.37 797.44,349.43 712.25,349.76 L 625.00 350.09 L 625.00 50.00 L 707.95 50.00 C775.80,50.00 792.97,50.27 802.30,51.49 C838.78,56.28 867.81,70.22 891.24,94.20 C910.25,113.68 923.18,138.83 928.66,167.03 C931.28,180.50 931.28,219.46 928.66,232.46 C916.58,292.46 872.95,334.89 810.63,347.22 ZM 1355.50 355.97 C1326.53,359.24 1301.31,352.32 1284.10,336.39 C1280.31,332.88 1276.95,330.00 1276.64,330.00 C1276.33,330.00 1275.94,334.39 1275.79,339.75 L 1275.50 349.50 L 1234.25 349.76 L 1193.00 350.02 L 1193.00 45.00 L 1277.00 45.00 L 1277.00 144.24 L 1273.50 150.00 C1271.57,153.17 1270.00,156.00 1270.00,156.30 C1270.00,156.59 1274.84,151.97 1280.75,146.03 C1290.30,136.43 1292.56,134.72 1301.00,130.65 C1312.16,125.28 1318.94,123.36 1332.27,121.83 C1343.84,120.51 1360.10,121.81 1372.53,125.07 C1400.46,132.39 1423.20,152.10 1437.58,181.45 C1454.48,215.96 1454.04,263.01 1436.48,298.02 C1428.78,313.39 1413.86,330.81 1400.60,339.93 C1388.76,348.07 1371.71,354.14 1355.50,355.97 ZM 1036.05 354.55 C1025.37,356.41 1006.60,357.15 997.91,356.04 C967.53,352.16 945.76,336.26 937.53,311.92 C935.01,304.46 934.63,301.73 934.25,288.00 C933.74,269.56 935.14,261.23 940.61,250.11 C948.87,233.33 964.03,223.42 990.00,217.81 C998.55,215.97 1004.00,215.71 1044.36,215.28 L 1089.22 214.81 L 1088.84 205.13 C1088.18,188.67 1084.03,184.87 1064.59,182.92 C1052.83,181.73 1035.46,182.94 1029.76,185.33 C1025.23,187.24 1020.54,192.33 1018.99,197.04 L 1017.68 201.00 L 943.73 201.00 L 944.25 188.75 C944.82,175.43 947.19,166.47 952.55,157.33 C963.43,138.76 986.79,127.19 1023.00,122.43 C1039.96,120.20 1076.16,120.16 1092.61,122.36 C1130.13,127.38 1154.85,140.88 1165.23,162.00 C1172.60,177.00 1172.31,172.90 1172.74,266.25 L 1173.12 350.00 L 1102.06 350.00 L 1098.68 339.25 C1095.64,329.60 1095.43,328.22 1096.65,325.80 C1097.39,324.31 1098.00,322.80 1098.00,322.44 C1098.00,322.08 1094.18,325.40 1089.51,329.82 C1082.48,336.47 1079.08,338.80 1069.76,343.35 C1057.10,349.53 1048.53,352.37 1036.05,354.55 ZM 1552.05 354.55 C1541.37,356.41 1522.60,357.15 1513.91,356.04 C1494.82,353.60 1479.42,346.57 1468.04,335.10 C1455.24,322.19 1451.01,310.97 1450.26,287.91 C1449.69,270.33 1451.25,261.08 1456.63,250.11 C1464.84,233.34 1480.01,223.42 1506.00,217.81 C1514.55,215.97 1520.00,215.71 1560.36,215.28 L 1605.22 214.81 L 1604.84 205.13 C1604.18,188.67 1600.03,184.87 1580.59,182.92 C1568.83,181.73 1551.46,182.94 1545.76,185.33 C1541.23,187.24 1536.54,192.33 1534.99,197.04 L 1533.68 201.00 L 1459.71 201.00 L 1460.27 188.75 C1461.58,160.03 1473.86,142.83 1501.00,131.70 C1519.80,124.00 1541.19,120.79 1574.00,120.76 C1598.80,120.74 1614.30,122.31 1630.11,126.43 C1656.11,133.22 1672.78,144.90 1681.41,162.40 C1688.59,176.94 1688.32,173.13 1688.74,266.25 L 1689.11 350.00 L 1618.10 350.00 L 1614.71 339.25 C1611.68,329.64 1611.46,328.21 1612.66,325.80 C1613.40,324.31 1614.00,322.80 1614.00,322.44 C1614.00,322.08 1610.18,325.40 1605.51,329.82 C1598.48,336.47 1595.08,338.80 1585.76,343.35 C1573.10,349.53 1564.53,352.37 1552.05,354.55 ZM 1793.00 287.55 L 1793.00 350.00 L 1709.00 350.00 L 1709.00 127.00 L 1789.66 127.00 L 1791.30 140.19 L 1792.93 153.37 L 1789.89 158.70 C1788.21,161.63 1787.01,164.54 1787.23,165.18 C1787.44,165.82 1789.12,163.68 1790.95,160.42 C1797.85,148.16 1809.96,135.04 1819.55,129.42 C1835.55,120.04 1865.58,117.67 1886.76,124.12 C1907.95,130.58 1923.87,147.30 1931.88,171.50 C1937.16,187.45 1938.14,193.97 1938.71,216.86 C1939.15,234.34 1939.00,238.39 1937.87,239.10 C1936.34,240.07 1866.80,240.32 1863.25,239.37 C1861.21,238.82 1861.00,238.16 1861.00,232.22 C1861.00,216.18 1855.90,202.67 1847.99,197.79 C1838.81,192.13 1819.09,192.10 1808.73,197.74 C1801.40,201.73 1796.33,209.38 1794.12,219.80 C1793.36,223.40 1793.00,245.16 1793.00,287.55 ZM 447.54 369.93 C444.40,374.92 441.52,378.99 441.16,378.97 C440.80,378.95 439.71,377.85 438.74,376.51 C437.77,375.18 434.42,372.40 431.31,370.33 C428.19,368.26 422.56,363.46 418.80,359.66 C407.24,347.98 402.10,335.17 396.06,303.00 C389.79,269.59 377.11,252.09 351.97,242.17 C347.82,240.53 335.00,237.07 323.47,234.47 C311.94,231.87 298.27,228.23 293.10,226.36 C287.92,224.50 283.48,223.19 283.21,223.45 C282.95,223.72 283.68,226.54 284.84,229.72 C289.03,241.24 291.00,251.49 290.98,261.67 C290.98,267.07 290.53,272.17 290.00,273.00 C289.47,273.83 289.02,274.05 289.00,273.50 C288.83,268.52 285.53,250.27 283.12,241.00 C280.34,230.31 275.15,216.13 273.10,213.59 C271.59,211.73 269.06,205.00 269.87,205.00 C270.29,205.00 272.54,206.63 274.87,208.62 C277.19,210.61 279.34,211.99 279.65,211.69 C280.57,210.76 278.00,203.91 273.89,196.30 C269.40,187.98 268.96,185.67 272.50,189.00 C273.87,190.29 275.30,191.04 275.67,190.67 C277.77,188.57 270.10,162.38 265.07,154.44 C261.33,148.56 261.30,148.14 264.63,148.78 C266.08,149.06 267.07,148.88 266.83,148.39 C265.46,145.58 263.10,139.88 261.55,135.68 C259.68,130.59 258.29,129.58 251.57,128.48 C246.41,127.64 248.71,126.04 255.11,126.02 C258.42,126.00 260.78,126.72 263.48,128.55 C265.54,129.95 267.43,130.90 267.67,130.67 C268.79,129.55 266.37,124.43 263.12,121.01 C259.56,117.28 256.03,115.80 247.53,114.45 C244.21,113.93 243.85,113.66 245.35,112.82 C247.16,111.81 255.16,112.19 260.27,113.52 C262.98,114.22 263.02,114.18 261.95,111.37 C259.63,105.23 253.22,100.96 244.12,99.49 C241.06,98.99 240.15,98.52 241.12,97.91 C241.88,97.42 243.49,97.02 244.69,97.02 C249.67,96.98 248.31,95.00 235.50,83.60 L 232.50 80.93 L 272.50 81.36 C294.50,81.60 314.52,82.25 317.00,82.82 C319.48,83.38 324.42,84.39 328.00,85.06 C352.30,89.64 373.62,97.16 389.21,106.63 L 395.29 110.32 L 390.42 112.79 C387.74,114.16 382.81,118.02 379.47,121.38 C371.36,129.54 368.47,136.88 368.58,149.00 C368.65,156.54 369.05,158.34 372.17,165.00 C376.36,173.94 382.53,180.15 395.63,188.63 C415.36,201.40 427.24,211.09 446.85,230.36 C463.26,246.49 469.95,256.01 474.38,269.57 C475.81,273.93 475.90,276.30 475.03,286.57 C473.44,305.41 472.42,309.82 468.22,315.94 C463.75,322.48 454.32,329.23 446.21,331.71 C434.49,335.29 421.78,332.78 411.24,324.81 C403.43,318.89 402.76,319.79 406.36,331.33 C411.06,346.40 413.61,348.30 430.88,349.59 C440.21,350.29 449.94,348.54 457.25,344.85 C459.37,343.78 461.00,343.42 461.00,344.02 C461.00,345.99 453.31,360.79 447.54,369.93 ZM 711.00 125.88 L 711.00 274.00 L 748.05 274.00 C789.61,274.00 793.75,273.53 807.00,267.26 C817.80,262.15 829.17,250.62 834.85,239.00 C841.50,225.41 843.27,217.13 843.27,199.50 C843.27,187.38 842.86,182.97 841.14,176.50 C834.84,152.82 820.25,136.33 799.00,128.87 C792.72,126.66 791.14,126.57 751.75,126.23 ZM 266.50 452.00 C257.56,452.00 248.96,452.19 247.38,452.42 C241.65,453.25 241.52,453.00 241.25,439.72 C240.90,422.77 243.55,408.50 254.18,370.00 C258.25,355.28 260.07,351.00 262.27,351.00 C266.11,350.98 288.89,339.12 305.30,328.59 C319.79,319.30 331.49,315.71 339.87,317.96 C347.57,320.04 351.78,325.40 357.36,340.22 C365.16,360.94 371.85,368.21 394.95,381.04 C406.58,387.50 417.03,396.37 418.52,401.05 C419.11,402.91 418.31,404.13 413.86,408.16 C406.46,414.86 389.43,426.26 379.00,431.50 C369.79,436.13 354.08,441.92 342.50,444.95 C335.09,446.89 326.00,448.41 326.00,447.70 C326.00,447.47 328.73,441.25 332.07,433.89 C346.12,402.91 346.25,402.17 339.54,390.96 C334.22,382.07 332.57,375.93 333.24,367.57 C334.08,357.16 339.79,347.30 347.25,343.39 C350.96,341.45 350.72,339.88 346.06,335.67 C341.48,331.53 337.25,330.48 328.63,331.35 C321.40,332.08 317.45,333.40 302.60,340.10 C296.50,342.85 288.66,346.27 285.19,347.68 C280.22,349.71 279.03,350.60 279.58,351.88 C279.96,352.77 281.06,356.22 282.02,359.55 C285.34,371.06 291.61,380.80 302.60,391.55 C309.35,398.15 313.00,405.34 313.00,412.05 C313.00,417.50 308.67,429.84 304.91,435.12 C303.04,437.75 302.34,438.00 296.84,438.00 C287.63,438.00 282.75,441.99 282.75,449.51 L 282.75 452.00 ZM 141.00 449.45 L 141.00 452.00 L 97.00 452.00 L 97.14 252.50 L 100.56 245.50 L 103.99 238.50 L 103.24 245.50 C102.83,249.35 102.52,258.58 102.54,266.00 C102.58,278.57 102.81,280.16 105.84,289.00 C110.33,302.08 117.60,314.14 127.39,324.75 C131.31,328.99 132.38,328.86 131.53,324.25 C130.47,318.48 132.43,321.48 134.96,329.50 C136.99,335.96 139.55,341.28 146.26,353.00 C148.03,356.11 150.23,364.01 153.34,378.50 C161.40,416.01 162.50,427.11 158.93,434.50 C157.72,437.00 156.73,437.59 152.99,438.05 C150.52,438.35 147.49,439.15 146.26,439.83 C143.54,441.32 141.00,445.98 141.00,449.45 ZM 1314.50 283.28 C1330.09,285.46 1344.52,280.55 1354.78,269.57 C1361.58,262.31 1364.65,255.55 1365.92,245.04 C1368.50,223.79 1359.57,205.83 1342.19,197.30 C1336.75,194.62 1335.85,194.50 1322.00,194.50 C1309.14,194.51 1306.85,194.77 1301.72,196.84 C1289.87,201.61 1279.54,214.53 1276.95,227.79 C1275.35,236.02 1276.21,249.02 1278.82,255.81 C1284.37,270.28 1298.32,281.02 1314.50,283.28 ZM 185.76 198.75 C188.82,202.77 187.55,202.90 182.32,199.12 C171.93,191.59 167.62,182.34 167.58,167.50 C167.55,158.33 167.81,156.94 170.71,150.78 C174.39,142.94 181.11,135.37 189.33,129.78 C195.05,125.89 195.12,125.79 193.33,123.81 C190.56,120.75 183.62,116.98 176.88,114.88 C168.53,112.29 160.66,112.48 151.37,115.51 C147.15,116.89 143.51,117.84 143.29,117.62 C142.73,117.07 147.59,113.73 153.00,110.95 C156.44,109.17 159.64,108.53 166.62,108.20 C174.95,107.81 176.28,108.01 181.94,110.55 C186.17,112.45 189.52,114.92 192.51,118.33 L 196.88 123.33 L 203.01 123.11 C210.62,122.84 216.71,125.52 221.21,131.11 C222.93,133.25 224.71,135.00 225.17,135.00 C225.63,135.00 226.00,133.06 226.00,130.69 C226.00,124.99 227.83,122.49 231.37,123.38 C237.70,124.97 248.00,138.28 248.00,144.87 C248.00,147.70 247.71,148.00 244.91,148.00 C242.65,148.00 241.67,147.46 241.29,146.00 C240.45,142.80 239.00,143.69 239.00,147.40 C239.00,150.82 239.92,152.43 250.41,167.28 C253.04,171.00 254.96,174.65 254.69,175.38 C254.31,176.35 250.42,176.85 240.01,177.26 C232.22,177.57 225.59,178.08 225.26,178.40 C224.12,179.55 228.33,182.97 231.65,183.59 C235.86,184.38 240.00,187.56 240.00,190.00 C240.00,193.48 233.84,198.70 227.59,200.52 C217.77,203.37 211.32,201.13 207.94,193.67 C205.64,188.61 205.53,184.87 207.49,178.41 C208.31,175.71 208.98,173.16 208.99,172.75 C209.00,172.34 206.14,172.00 202.63,172.00 C194.86,172.00 191.84,170.01 188.38,162.58 C185.84,157.10 185.25,149.11 186.96,143.15 C187.77,140.33 187.68,139.91 186.37,140.41 C185.53,140.73 184.66,141.00 184.44,141.00 C183.55,141.00 178.62,151.81 177.36,156.50 C175.65,162.91 175.65,175.09 177.36,181.50 C178.91,187.29 182.23,194.10 185.76,198.75 ZM 684.33 469.03 C679.70,470.80 675.93,471.33 666.00,471.61 C648.26,472.10 639.14,469.49 632.79,462.07 C629.74,458.51 627.00,451.87 627.00,448.06 C627.00,447.41 629.97,447.00 634.76,447.00 C642.30,447.00 642.55,447.08 643.76,449.82 C644.44,451.37 646.92,453.73 649.25,455.07 C652.97,457.20 654.74,457.50 663.50,457.50 C671.36,457.50 674.33,457.09 677.37,455.58 C682.13,453.22 684.62,448.19 683.32,443.56 C682.04,438.99 677.55,437.35 662.50,435.97 C654.62,435.25 647.33,433.97 644.00,432.74 C637.16,430.21 630.64,423.97 629.12,418.50 C625.64,405.96 630.91,395.88 643.50,390.97 C648.83,388.89 651.18,388.62 664.50,388.60 C677.78,388.57 680.15,388.83 685.19,390.83 C692.13,393.60 696.39,398.19 698.46,405.17 C698.51,405.35 698.57,405.53 698.62,405.71 C699.69,409.30 700.23,411.12 699.55,412.05 C698.85,413.00 696.85,413.00 692.78,413.00 L 692.19 413.00 L 684.37 413.00 L 682.72 409.55 C679.85,403.51 677.14,402.50 663.87,402.50 C653.52,402.50 651.82,402.75 649.32,404.60 C645.40,407.52 644.16,411.40 646.05,414.82 C648.37,419.03 653.35,420.82 666.00,421.96 C693.71,424.47 701.04,429.55 700.98,446.22 C700.94,457.47 695.67,464.69 684.33,469.03 ZM 1012.51 468.73 C1008.59,470.73 1005.68,471.36 999.01,471.64 C986.43,472.17 979.23,469.39 971.81,461.14 C957.59,445.31 963.52,418.21 982.80,410.96 C987.64,409.14 990.08,408.88 999.00,409.21 C1010.95,409.65 1015.00,411.20 1021.14,417.67 C1027.68,424.55 1029.43,429.22 1029.47,440.00 C1029.49,448.08 1029.15,450.17 1027.14,454.00 C1023.90,460.20 1018.44,465.69 1012.51,468.73 ZM 757.50 469.13 C748.62,473.08 734.82,472.61 726.00,468.06 C720.91,465.43 714.01,457.64 711.99,452.24 C707.34,439.81 710.27,425.82 719.30,417.27 C726.57,410.40 732.13,408.67 745.35,409.16 C754.21,409.48 756.12,409.88 760.13,412.23 C765.76,415.53 770.60,420.91 773.38,426.95 C776.43,433.56 776.32,446.57 773.17,453.60 C770.30,459.99 764.00,466.24 757.50,469.13 ZM 1444.57 470.54 C1438.46,472.35 1429.74,472.35 1424.66,470.54 C1416.88,467.77 1413.00,461.85 1413.00,452.78 C1413.00,445.23 1415.41,441.04 1421.50,438.02 C1425.98,435.79 1428.10,435.48 1442.00,435.02 L 1457.50 434.50 L 1457.83 431.64 C1458.33,427.26 1456.22,423.27 1452.76,422.06 C1445.18,419.42 1432.87,421.68 1431.52,425.95 C1430.90,427.91 1430.24,428.06 1423.67,427.79 L 1416.50 427.50 L 1416.62 423.66 C1416.78,418.60 1419.50,415.06 1425.55,412.00 C1429.86,409.83 1432.09,409.46 1442.81,409.15 C1456.60,408.75 1462.81,409.86 1467.75,413.63 C1474.20,418.54 1474.48,419.92 1474.49,446.00 L 1474.50 469.50 L 1467.37 469.79 L 1460.24 470.08 L 1459.58 466.59 L 1458.93 463.09 L 1454.21 466.08 C1451.62,467.72 1447.28,469.73 1444.57,470.54 ZM 1838.65 470.51 C1830.45,472.95 1822.14,472.47 1815.90,469.22 C1808.75,465.48 1806.51,461.58 1806.51,452.83 C1806.50,447.64 1806.96,445.54 1808.56,443.39 C1813.61,436.61 1819.40,435.00 1838.64,435.00 L 1851.00 435.00 L 1851.00 430.61 C1851.00,423.94 1848.82,421.91 1840.96,421.29 C1832.53,420.62 1826.69,422.19 1825.16,425.54 C1824.05,427.97 1823.68,428.07 1816.75,427.79 L 1809.50 427.50 L 1809.83 424.00 C1810.33,418.62 1813.08,414.83 1818.50,412.04 C1823.15,409.65 1824.34,409.50 1838.50,409.50 C1852.63,409.50 1853.85,409.65 1858.46,412.02 C1862.05,413.87 1863.99,415.73 1865.68,418.93 C1867.91,423.15 1868.00,424.17 1868.00,446.70 L 1868.00 470.09 L 1860.76 469.79 C1854.41,469.54 1853.48,469.25 1853.20,467.50 C1852.48,463.00 1852.13,462.90 1847.86,465.99 C1845.56,467.66 1841.41,469.69 1838.65,470.51 ZM 1089.02 467.90 C1083.18,471.08 1081.67,471.46 1073.52,471.73 C1067.66,471.92 1063.22,471.55 1060.84,470.66 C1045.43,464.92 1038.27,454.13 1039.20,438.06 C1039.89,426.11 1045.59,416.87 1055.44,411.73 C1061.07,408.79 1077.63,408.05 1084.77,410.42 C1095.80,414.09 1102.93,424.27 1103.79,437.58 L 1104.26 445.00 L 1080.13 445.00 C1057.31,445.00 1056.00,445.10 1056.00,446.85 C1056.00,449.76 1060.16,455.11 1063.98,457.15 C1070.84,460.79 1083.67,458.63 1085.64,453.49 C1086.08,452.34 1088.03,452.00 1094.11,452.00 C1103.33,452.00 1103.59,452.42 1098.75,459.57 C1096.41,463.03 1093.69,465.36 1089.02,467.90 ZM 1679.44 470.57 C1673.60,472.33 1662.94,472.32 1657.29,470.55 C1642.92,466.06 1635.00,455.21 1635.00,440.00 C1635.00,431.39 1637.35,424.93 1642.65,419.05 C1650.19,410.66 1653.27,409.50 1668.00,409.50 C1678.93,409.50 1681.01,409.77 1684.57,411.68 C1693.76,416.60 1700.00,427.66 1700.00,439.04 L 1700.00 445.00 L 1651.78 445.00 L 1652.46 447.75 C1654.19,454.79 1660.47,459.00 1669.21,459.00 C1674.71,458.99 1680.52,456.42 1681.64,453.49 C1682.08,452.34 1684.03,452.00 1690.11,452.00 C1699.23,452.00 1699.45,452.33 1695.05,459.25 C1691.66,464.60 1686.26,468.52 1679.44,470.57 ZM 1244.00 441.00 L 1244.00 470.00 L 1227.00 470.00 L 1227.00 390.00 L 1294.84 390.00 L 1295.17 397.09 C1295.35,400.99 1295.31,404.36 1295.08,404.59 C1294.85,404.81 1283.27,405.00 1269.33,405.00 L 1244.00 405.00 L 1244.00 426.00 L 1293.00 426.00 L 1293.00 441.00 ZM 472.51 227.29 C473.41,232.13 473.99,236.44 473.82,236.86 C473.64,237.29 468.10,232.03 461.50,225.17 C454.90,218.31 443.42,207.44 436.00,201.01 C428.58,194.57 420.83,187.46 418.79,185.19 C404.79,169.67 405.05,147.08 419.36,135.60 L 423.22 132.50 L 430.22 139.96 C437.29,147.50 451.51,168.03 456.42,177.81 C463.53,191.93 469.19,209.37 472.51,227.29 ZM 933.58 495.54 C928.51,498.86 921.21,499.08 917.52,496.02 C916.21,494.93 916.29,494.45 918.11,492.14 C919.67,490.15 921.08,489.50 923.84,489.50 C927.24,489.50 927.50,489.29 927.50,486.50 C927.50,483.56 927.38,483.49 922.00,483.22 C913.66,482.80 913.59,482.73 916.43,477.14 C919.02,472.02 918.91,471.00 915.77,471.00 C911.99,471.00 903.01,465.81 899.09,461.36 C893.48,454.99 891.66,448.85 892.21,438.14 C892.90,424.49 897.77,416.79 909.00,411.57 C913.68,409.40 915.92,409.02 924.07,409.01 C934.95,409.00 940.81,410.57 946.09,414.92 C950.09,418.22 954.70,426.12 955.17,430.50 L 955.50 433.50 L 947.87 433.79 L 940.24 434.08 L 938.20 430.61 C935.06,425.29 931.58,423.50 924.37,423.50 C914.31,423.50 908.85,428.83 908.21,439.26 C907.88,444.54 908.18,446.02 910.16,448.91 C913.75,454.14 917.30,456.28 923.24,456.77 C930.45,457.37 935.45,455.21 937.68,450.56 L 939.37 447.00 L 956.04 447.00 L 955.38 449.75 C952.72,460.83 944.51,468.57 932.51,471.29 C925.96,472.78 924.47,474.41 928.71,475.45 C933.21,476.55 935.74,478.69 936.97,482.40 C938.47,486.95 936.80,493.43 933.58,495.54 ZM 1505.19 450.75 L 1504.88 470.00 L 1488.00 470.00 L 1488.00 410.00 L 1504.00 410.00 L 1504.12 413.75 C1504.18,415.81 1504.18,417.84 1504.12,418.25 C1503.90,419.61 1504.72,419.04 1508.65,415.11 C1510.86,412.91 1514.27,410.74 1516.52,410.12 C1522.86,408.36 1534.87,408.76 1539.50,410.88 C1544.43,413.15 1546.28,415.18 1549.20,421.54 C1551.32,426.13 1551.51,428.13 1551.83,448.29 L 1552.17 470.08 L 1543.84 469.79 L 1535.50 469.50 L 1535.00 449.85 C1534.45,428.38 1534.27,427.74 1527.80,424.40 C1521.89,421.34 1511.31,423.63 1507.50,428.79 C1505.69,431.24 1505.47,433.35 1505.19,450.75 ZM 855.30 468.67 C851.84,470.70 849.13,471.40 843.64,471.67 C833.19,472.20 826.11,469.15 821.26,462.03 C817.57,456.61 817.01,452.47 817.01,430.71 L 817.00 409.92 L 825.06 410.21 L 833.12 410.50 L 833.35 428.50 C833.62,448.70 834.59,452.70 839.87,455.43 C844.49,457.82 852.99,457.47 857.10,454.73 C863.26,450.62 864.00,447.73 864.00,427.75 L 864.00 410.00 L 881.00 410.00 L 881.00 470.00 L 873.11 470.00 C864.48,470.00 864.03,469.69 863.97,463.67 L 863.94 460.50 L 861.88 463.26 C860.74,464.78 857.78,467.21 855.30,468.67 ZM 1355.00 452.25 L 1355.00 470.00 L 1338.00 470.00 L 1338.00 410.00 L 1345.89 410.00 C1354.48,410.00 1355.00,410.35 1355.00,416.16 L 1355.00 419.15 L 1357.52 416.15 C1361.77,411.11 1367.47,409.00 1376.85,409.00 C1389.92,409.00 1396.27,412.77 1400.00,422.72 C1401.77,427.45 1402.00,430.51 1402.00,449.08 L 1402.00 470.08 L 1393.83 469.79 L 1385.66 469.50 L 1385.87 457.00 C1385.98,450.12 1385.64,441.17 1385.11,437.09 C1384.30,430.83 1383.67,429.21 1381.06,426.60 C1378.21,423.74 1377.45,423.51 1371.06,423.50 C1363.14,423.50 1359.68,425.33 1356.75,431.07 C1355.28,433.95 1355.00,437.33 1355.00,452.25 ZM 1157.30 469.99 C1147.12,473.13 1130.61,472.46 1123.22,468.60 C1117.69,465.71 1113.00,458.98 1113.00,453.93 C1113.00,452.20 1113.75,452.00 1120.43,452.00 C1127.00,452.00 1127.94,452.23 1128.50,454.01 C1129.60,457.47 1134.78,459.46 1142.60,459.44 C1151.26,459.42 1155.00,457.49 1155.00,453.05 C1155.00,448.69 1152.82,447.23 1145.26,446.56 C1125.29,444.79 1118.88,442.47 1115.34,435.75 C1112.95,431.23 1113.07,423.27 1115.59,418.96 C1120.15,411.16 1127.51,408.66 1144.47,409.16 C1155.07,409.47 1157.03,409.81 1160.92,412.01 C1165.58,414.64 1168.66,419.29 1169.19,424.50 L 1169.50 427.50 L 1162.43 427.79 C1155.69,428.07 1155.30,427.96 1154.19,425.52 C1152.68,422.20 1149.33,421.00 1141.68,421.01 C1133.70,421.03 1130.60,422.57 1130.19,426.71 C1129.72,431.57 1132.81,432.98 1147.49,434.59 C1154.37,435.35 1161.57,436.63 1163.48,437.43 C1169.74,440.04 1173.18,448.92 1171.03,456.90 C1169.26,463.45 1164.85,467.66 1157.30,469.99 ZM 1926.61 468.44 C1921.36,471.07 1919.54,471.42 1909.61,471.72 C1898.04,472.07 1891.89,470.78 1885.63,466.68 C1882.56,464.67 1879.00,458.15 1879.00,454.54 C1879.00,452.05 1879.15,452.00 1886.26,452.00 C1892.83,452.00 1893.62,452.21 1894.51,454.25 C1896.06,457.77 1900.69,459.48 1908.60,459.45 C1917.19,459.42 1921.00,457.48 1921.00,453.13 C1921.00,448.41 1918.51,447.18 1906.64,446.06 C1892.11,444.68 1888.28,443.51 1883.88,439.11 C1881.11,436.34 1880.01,434.27 1879.49,430.79 C1878.23,422.39 1881.67,415.83 1889.50,411.69 C1895.04,408.76 1915.43,407.99 1922.78,410.43 C1930.11,412.86 1935.00,418.92 1935.00,425.57 C1935.00,427.91 1934.75,428.00 1928.03,428.00 C1921.36,428.00 1920.99,427.87 1919.57,425.13 C1917.80,421.71 1915.70,421.03 1906.81,421.01 C1901.23,421.00 1899.66,421.39 1897.40,423.33 C1895.34,425.10 1894.84,426.23 1895.31,428.08 C1896.29,431.92 1899.29,433.02 1913.10,434.55 C1932.56,436.71 1937.02,440.00 1936.98,452.15 C1936.96,460.08 1933.98,464.76 1926.61,468.44 ZM 1610.74 469.05 C1603.48,472.23 1590.52,472.77 1583.33,470.21 C1576.57,467.80 1571.47,463.82 1567.88,458.15 C1564.12,452.22 1563.01,448.04 1563.01,439.76 C1563.00,427.64 1568.44,417.85 1578.18,412.45 C1583.27,409.62 1584.03,409.50 1596.00,409.50 C1607.83,409.50 1608.75,409.65 1613.18,412.25 C1615.75,413.76 1619.25,416.69 1620.96,418.75 C1624.04,422.48 1627.46,431.45 1626.42,433.12 C1626.13,433.61 1622.77,434.00 1618.98,434.00 C1612.17,434.00 1612.04,433.95 1609.64,430.41 C1606.25,425.44 1604.05,424.14 1597.86,423.45 C1593.45,422.97 1591.71,423.28 1588.06,425.18 C1581.30,428.71 1579.50,431.83 1579.50,440.00 C1579.50,445.36 1579.95,447.45 1581.56,449.61 C1585.07,454.31 1588.60,456.30 1594.24,456.77 C1601.23,457.35 1606.36,455.20 1609.10,450.55 L 1611.20 447.00 L 1627.04 447.00 L 1626.39 449.75 C1624.28,458.63 1618.63,465.61 1610.74,469.05 ZM 182.94 324.39 C179.92,343.56 179.50,345.60 178.81,344.50 C178.47,343.95 176.29,334.95 173.97,324.50 C167.53,295.49 162.19,281.61 150.64,263.82 C133.56,237.51 128.54,214.10 135.22,192.00 C138.19,182.19 139.00,182.43 139.00,193.14 C139.00,204.56 141.36,214.74 146.36,224.85 C150.41,233.05 152.86,236.72 165.59,253.64 C175.46,266.78 181.12,276.98 183.51,286.00 C185.58,293.77 185.35,309.06 182.94,324.39 ZM 100.91 180.28 C99.76,183.70 98.42,187.18 97.94,188.00 C97.43,188.87 97.05,166.83 97.03,135.25 L 97.00 81.00 L 128.75 81.05 L 160.50 81.10 L 154.49 83.34 C142.96,87.63 137.06,93.01 128.01,107.50 C122.16,116.85 119.31,119.89 114.25,122.18 C111.91,123.23 110.00,124.43 110.00,124.85 C110.00,126.22 112.37,128.00 114.20,128.00 C116.70,128.00 116.50,128.78 112.44,134.82 C108.29,140.97 106.63,145.30 103.92,157.00 C102.83,161.68 101.06,166.71 99.98,168.20 C97.96,170.98 98.62,172.47 101.41,171.40 C103.58,170.56 103.46,172.70 100.91,180.28 ZM 1031.99 293.13 C1033.37,293.58 1041.03,293.80 1049.00,293.61 C1062.04,293.31 1064.31,292.98 1071.54,290.36 C1075.96,288.75 1081.70,286.19 1084.29,284.67 L 1089.00 281.92 L 1089.00 265.00 L 1059.82 265.00 C1032.46,265.00 1030.37,265.13 1026.41,267.04 C1021.53,269.41 1019.00,273.75 1019.00,279.77 C1019.00,285.80 1023.37,290.30 1031.99,293.13 ZM 1546.76 292.64 C1549.53,293.67 1554.26,293.94 1565.00,293.66 C1577.98,293.32 1580.34,292.97 1587.54,290.36 C1591.96,288.75 1597.70,286.19 1600.29,284.67 L 1605.00 281.92 L 1605.00 265.00 L 1575.97 265.00 C1545.01,265.00 1542.57,265.33 1538.18,270.04 C1535.22,273.21 1534.31,280.34 1536.33,284.57 C1538.07,288.22 1541.01,290.49 1546.76,292.64 ZM 1758.00 451.75 L 1758.00 470.00 L 1750.17 470.00 C1745.86,470.00 1742.15,469.81 1741.92,469.58 C1741.69,469.36 1741.63,455.86 1741.78,439.58 L 1742.06 410.00 L 1749.42 410.00 C1757.42,410.00 1758.00,410.41 1758.00,416.12 L 1758.00 419.07 L 1761.23 415.39 C1765.55,410.48 1769.49,409.00 1778.22,409.02 C1788.04,409.04 1792.48,411.48 1796.25,418.93 C1798.39,423.15 1799.00,425.77 1799.00,430.68 C1799.00,434.19 1798.55,437.03 1798.00,437.06 C1797.45,437.09 1794.19,437.15 1790.75,437.18 L 1784.50 437.24 L 1783.93 433.07 C1783.11,427.16 1779.51,423.84 1773.34,423.31 C1767.14,422.77 1762.13,425.24 1759.75,430.00 C1758.28,432.95 1758.00,436.38 1758.00,451.75 ZM 803.00 388.00 L 803.00 470.00 L 787.00 470.00 L 787.00 388.00 ZM 237.00 317.52 C231.77,321.50 224.38,327.62 220.56,331.12 C216.68,334.68 213.95,336.62 214.37,335.50 C216.49,329.87 223.09,319.72 229.91,311.60 C245.56,292.97 254.04,278.16 258.03,262.50 C260.48,252.85 260.75,237.34 258.60,228.51 C257.80,225.21 257.30,222.36 257.49,222.18 C258.24,221.43 263.36,231.48 265.15,237.24 C268.91,249.31 269.25,267.99 265.93,279.50 C263.61,287.54 257.08,298.58 250.06,306.36 C248.10,308.53 242.23,313.55 237.00,317.52 ZM 191.25 447.44 C190.84,451.11 190.36,452.00 188.80,452.00 C187.44,452.00 187.01,451.48 187.36,450.25 C188.64,445.71 189.05,440.86 190.01,419.06 C190.58,406.17 191.22,395.45 191.44,395.23 C191.65,395.02 192.99,395.60 194.41,396.54 C196.52,397.91 197.00,397.97 197.00,396.81 C197.00,392.75 208.49,380.00 212.15,380.00 C215.02,380.00 210.30,420.64 206.61,427.79 C204.58,431.71 204.53,435.00 206.50,435.00 C208.79,435.00 208.29,436.51 205.50,438.00 C204.12,438.74 203.00,439.71 203.00,440.17 C203.00,440.63 202.56,441.00 202.03,441.00 C201.50,441.00 201.32,440.33 201.64,439.50 C202.07,438.38 201.48,438.00 199.28,438.00 C195.13,438.00 191.89,441.81 191.25,447.44 ZM 1728.00 410.00 L 1728.00 470.00 L 1711.00 470.00 L 1711.00 410.00 ZM 1324.00 410.00 L 1324.00 470.00 L 1308.00 470.00 L 1308.00 410.00 ZM 216.91 282.50 C216.84,293.18 214.85,302.80 213.70,298.00 C213.37,296.62 212.63,292.53 212.05,288.89 C210.12,276.85 205.36,265.83 197.29,254.75 C193.60,249.68 191.45,248.56 192.51,252.25 C192.87,253.49 193.38,255.29 193.65,256.25 C194.76,260.24 192.09,257.34 185.36,247.22 C173.94,230.08 169.22,219.36 167.52,206.75 C167.17,204.14 167.12,202.00 167.42,202.00 C167.72,202.00 169.16,204.36 170.62,207.25 C175.12,216.16 178.90,220.92 193.45,236.02 C213.09,256.39 217.03,264.20 216.91,282.50 ZM 989.45 455.65 C993.77,457.61 1003.31,456.90 1006.70,454.37 C1013.81,449.07 1015.91,439.89 1011.82,432.06 C1008.42,425.54 1005.30,423.66 997.77,423.57 C987.89,423.46 981.43,428.34 980.30,436.77 C979.16,445.29 982.70,452.59 989.45,455.65 ZM 736.00 455.93 C739.98,457.60 749.60,456.69 752.76,454.33 C759.45,449.35 761.68,439.49 757.82,432.00 C749.94,416.71 726.00,422.50 726.00,439.70 C726.00,447.40 729.60,453.24 736.00,455.93 ZM 996.62 398.41 C988.58,401.06 983.68,401.48 978.69,399.98 C973.83,398.52 973.00,397.20 973.00,390.88 C973.00,387.64 973.17,385.00 973.38,385.00 C973.59,385.00 975.37,385.67 977.35,386.50 C982.38,388.60 989.01,388.37 996.28,385.83 C1003.49,383.32 1013.05,382.89 1017.75,384.87 C1020.90,386.20 1021.00,386.42 1021.00,392.24 C1021.00,398.00 1020.91,398.21 1018.75,397.52 C1012.44,395.51 1004.48,395.83 996.62,398.41 ZM 149.72 280.75 C152.17,285.29 153.79,289.00 153.31,289.00 C152.83,289.00 149.40,284.73 145.68,279.50 C139.46,270.75 137.00,268.35 137.00,271.05 C137.00,271.63 137.71,273.47 138.57,275.14 C141.12,280.07 139.63,279.45 133.82,273.18 C124.91,263.55 118.18,248.81 116.46,235.15 C115.66,228.82 116.78,215.00 118.09,215.00 C118.59,215.00 119.00,215.86 119.00,216.92 C119.00,226.21 128.20,246.68 141.29,266.50 C143.47,269.80 147.26,276.21 149.72,280.75 ZM 244.10 216.36 C241.70,218.76 240.12,219.39 235.82,219.67 C228.16,220.17 218.69,216.03 216.00,211.00 C214.32,207.86 214.82,207.30 219.82,206.71 C222.46,206.39 227.14,205.03 230.21,203.67 C239.72,199.46 241.53,199.38 245.12,202.97 C247.83,205.67 248.17,206.58 247.65,209.75 C247.31,211.89 245.83,214.63 244.10,216.36 ZM 234.54 285.37 C230.76,291.28 228.41,293.54 229.33,290.38 C231.11,284.30 232.03,279.07 233.47,267.00 C234.35,259.58 235.50,251.70 236.01,249.50 C236.53,247.30 236.98,241.90 237.02,237.50 L 237.09 229.50 L 239.06 233.24 C246.67,247.64 244.78,269.36 234.54,285.37 ZM 1056.39 431.80 L 1055.75 435.00 L 1088.13 435.00 L 1087.44 432.75 C1084.91,424.55 1080.32,421.01 1072.22,421.00 C1062.91,421.00 1057.86,424.44 1056.39,431.80 ZM 1652.39 431.80 L 1651.75 435.00 L 1683.86 435.00 L 1683.04 432.14 C1680.81,424.36 1676.35,421.01 1668.22,421.00 C1658.91,421.00 1653.86,424.44 1652.39,431.80 ZM 1433.28 457.98 C1437.81,459.80 1447.23,459.10 1452.75,456.54 C1457.95,454.11 1458.00,454.05 1458.00,449.55 L 1458.00 445.00 L 1446.75 445.01 C1434.42,445.03 1430.70,446.12 1430.17,449.88 C1429.62,453.68 1430.91,457.03 1433.28,457.98 ZM 1825.58 456.67 C1828.00,459.10 1828.62,459.22 1835.93,458.80 C1841.68,458.46 1844.65,457.76 1847.35,456.09 C1850.66,454.05 1851.00,453.42 1851.00,449.42 L 1851.00 445.00 L 1839.93 445.00 C1826.41,445.00 1823.05,446.35 1823.02,451.80 C1823.01,453.06 1824.16,455.25 1825.58,456.67 ZM 123.79 189.25 C121.58,192.96 119.55,196.00 119.27,196.00 C117.05,196.00 123.85,174.35 128.66,166.14 C131.60,161.11 140.29,151.45 143.35,149.81 C145.44,148.69 145.38,148.85 141.31,154.87 C138.58,158.91 139.17,160.59 142.55,158.37 C143.90,157.49 145.00,157.05 145.00,157.39 C145.00,157.73 141.13,163.52 136.40,170.25 C131.67,176.99 125.99,185.54 123.79,189.25 ZM 199.56 99.06 C201.66,101.21 203.17,103.16 202.94,103.39 C202.70,103.63 199.74,102.52 196.36,100.94 C183.50,94.91 170.30,94.25 156.33,98.95 C151.51,100.57 147.37,101.70 147.14,101.47 C146.30,100.63 151.63,96.81 158.00,93.69 C163.68,90.90 165.71,90.46 174.17,90.16 C182.91,89.85 184.42,90.07 189.80,92.49 C193.07,93.96 197.47,96.92 199.56,99.06 ZM 250.52 340.77 C247.93,343.65 245.36,346.00 244.81,346.00 C244.26,346.00 245.07,343.86 246.61,341.25 C254.07,328.60 261.77,309.68 265.03,296.00 C266.31,290.62 266.36,290.57 267.22,293.50 C268.37,297.37 267.48,309.10 265.55,315.50 C263.55,322.17 256.33,334.31 250.52,340.77 ZM 1322.93 397.37 C1321.27,399.47 1320.02,399.99 1316.68,399.97 C1312.17,399.93 1309.99,398.74 1308.16,395.32 C1306.47,392.13 1306.73,389.61 1309.07,386.63 C1310.79,384.45 1311.95,384.00 1315.82,384.02 C1321.07,384.03 1322.20,384.55 1323.85,387.68 C1325.57,390.96 1325.24,394.42 1322.93,397.37 ZM 1725.75 397.41 C1721.70,401.94 1716.18,401.59 1712.22,396.55 C1709.65,393.29 1710.06,388.23 1713.08,385.75 C1716.11,383.27 1723.41,383.41 1726.00,386.00 C1728.75,388.75 1728.63,394.19 1725.75,397.41 ZM 215.80 162.01 C217.28,164.16 218.83,165.94 219.23,165.96 C220.41,166.02 218.91,159.76 216.88,156.19 C215.85,154.37 215.00,151.53 215.00,149.88 C215.00,146.64 213.46,143.00 212.09,143.00 C211.63,143.00 210.99,144.31 210.67,145.91 C210.09,148.81 210.08,148.82 204.06,148.27 C198.48,147.77 194.96,148.78 195.02,150.87 C195.04,151.83 203.97,155.82 208.80,157.03 C212.05,157.84 213.75,159.05 215.80,162.01 ZM 162.54 131.96 C160.62,133.76 160.03,135.45 159.80,139.74 C159.52,144.91 159.41,145.12 157.88,143.36 C152.25,136.89 152.76,128.35 158.99,124.67 C162.57,122.55 169.98,122.53 174.78,124.62 L 178.50 126.24 L 171.75 127.95 C167.98,128.90 163.91,130.67 162.54,131.96 ZM 252.94 199.06 C251.87,200.13 250.62,201.00 250.15,201.00 C248.15,201.00 244.00,194.42 244.00,191.24 C244.00,187.50 254.45,180.53 256.12,183.16 C258.09,186.27 256.18,195.82 252.94,199.06 ZM 125.68 149.85 C121.73,155.83 117.92,161.57 117.22,162.61 C116.11,164.25 116.02,163.97 116.53,160.50 C117.50,153.96 122.55,144.36 128.11,138.47 C133.06,133.24 139.64,128.31 140.50,129.17 C140.72,129.39 139.10,131.69 136.89,134.27 C134.68,136.86 129.63,143.87 125.68,149.85 ZM 206.37 95.44 C208.55,98.77 207.51,98.66 202.00,94.99 C196.96,91.62 184.58,86.63 178.50,85.51 C174.68,84.81 174.61,84.73 177.00,83.83 C179.98,82.70 187.90,83.64 192.88,85.72 C198.04,87.88 204.43,92.48 206.37,95.44 ZM 230.61 92.91 C229.70,98.71 228.00,99.03 228.00,93.41 C228.00,90.46 227.21,86.88 226.08,84.65 L 224.16 80.88 L 226.33 81.19 C229.04,81.58 231.38,87.99 230.61,92.91 ZM 218.81 86.87 C220.09,89.14 220.76,90.98 220.31,90.95 C219.87,90.93 217.12,88.74 214.20,86.08 C209.90,82.16 209.22,81.13 210.59,80.60 C213.00,79.68 216.13,82.07 218.81,86.87 ZM 100.57 206.49 C97.59,213.61 97.06,213.87 97.03,208.25 C97.00,203.30 97.14,203.00 99.51,203.00 C102.00,203.00 102.01,203.04 100.57,206.49 Z" fill="rgb(42,42,41)"/>
<path d="M 0.00 0.00 L 1940.00 0.00 L 1214.75 0.12 C781.84,0.20 495.96,0.60 495.96,1.14 C495.96,1.14 495.97,1.15 496.00,1.15 C511.11,3.25 527.23,14.58 533.90,27.80 C534.65,29.29 535.31,30.37 535.89,31.50 C540.03,39.56 540.03,49.76 540.00,225.47 C540.00,239.14 540.00,253.82 540.00,269.57 C540.00,413.43 539.65,495.60 539.01,498.95 C536.39,512.74 525.56,526.94 512.78,533.35 C508.77,535.35 503.02,537.64 500.00,538.43 C499.89,538.46 499.83,538.49 499.83,538.52 C499.84,539.69 601.61,539.88 1217.25,539.93 L 1940.00 540.00 L 0.00 540.00 ZM 447.54 369.93 C453.31,360.79 461.00,345.99 461.00,344.02 C461.00,343.42 459.37,343.78 457.25,344.85 C449.94,348.54 440.21,350.29 430.88,349.59 C413.61,348.30 411.06,346.40 406.36,331.33 C402.76,319.79 403.43,318.89 411.24,324.81 C421.78,332.78 434.49,335.29 446.21,331.71 C454.32,329.23 463.75,322.48 468.22,315.94 C472.42,309.82 473.44,305.41 475.03,286.57 C475.90,276.30 475.81,273.93 474.38,269.57 C469.95,256.01 463.26,246.49 446.85,230.36 C427.24,211.09 415.36,201.40 395.63,188.63 C382.53,180.15 376.36,173.94 372.17,165.00 C369.05,158.34 368.65,156.54 368.58,149.00 C368.47,136.88 371.36,129.54 379.47,121.38 C382.81,118.02 387.74,114.16 390.42,112.79 L 395.29 110.32 L 389.21 106.63 C373.62,97.16 352.30,89.64 328.00,85.06 C324.42,84.39 319.48,83.38 317.00,82.82 C314.52,82.25 294.50,81.60 272.50,81.36 L 232.50 80.93 L 235.50 83.60 C248.31,95.00 249.67,96.98 244.69,97.02 C243.49,97.02 241.88,97.42 241.12,97.91 C240.15,98.52 241.06,98.99 244.12,99.49 C253.22,100.96 259.63,105.23 261.95,111.37 C263.02,114.18 262.98,114.22 260.27,113.52 C255.16,112.19 247.16,111.81 245.35,112.82 C243.85,113.66 244.21,113.93 247.53,114.45 C256.03,115.80 259.56,117.28 263.12,121.01 C266.37,124.43 268.79,129.55 267.67,130.67 C267.43,130.90 265.54,129.95 263.48,128.55 C260.78,126.72 258.42,126.00 255.11,126.02 C248.71,126.04 246.41,127.64 251.57,128.48 C258.29,129.58 259.68,130.59 261.55,135.68 C263.10,139.88 265.46,145.58 266.83,148.39 C267.07,148.88 266.08,149.06 264.63,148.78 C261.30,148.14 261.33,148.56 265.07,154.44 C270.10,162.38 277.77,188.57 275.67,190.67 C275.30,191.04 273.87,190.29 272.50,189.00 C268.96,185.67 269.40,187.98 273.89,196.30 C278.00,203.91 280.57,210.76 279.65,211.69 C279.34,211.99 277.19,210.61 274.87,208.62 C272.54,206.63 270.29,205.00 269.87,205.00 C269.06,205.00 271.59,211.73 273.10,213.59 C275.15,216.13 280.34,230.31 283.12,241.00 C285.53,250.27 288.83,268.52 289.00,273.50 C289.02,274.05 289.47,273.83 290.00,273.00 C290.53,272.17 290.98,267.07 290.98,261.67 C291.00,251.49 289.03,241.24 284.84,229.72 C283.68,226.54 282.95,223.72 283.21,223.45 C283.48,223.19 287.92,224.50 293.10,226.36 C298.27,228.23 311.94,231.87 323.47,234.47 C335.00,237.07 347.82,240.53 351.97,242.17 C377.11,252.09 389.79,269.59 396.06,303.00 C402.10,335.17 407.24,347.98 418.80,359.66 C422.56,363.46 428.19,368.26 431.31,370.33 C434.42,372.40 437.77,375.18 438.74,376.51 C439.71,377.85 440.80,378.95 441.16,378.97 C441.52,378.99 444.40,374.92 447.54,369.93 ZM 266.50 452.00 L 282.75 452.00 L 282.75 449.51 C282.75,441.99 287.63,438.00 296.84,438.00 C302.34,438.00 303.04,437.75 304.91,435.12 C308.67,429.84 313.00,417.50 313.00,412.05 C313.00,405.34 309.35,398.15 302.60,391.55 C291.61,380.80 285.34,371.06 282.02,359.55 C281.06,356.22 279.96,352.77 279.58,351.88 C279.03,350.60 280.22,349.71 285.19,347.68 C288.66,346.27 296.50,342.85 302.60,340.10 C317.45,333.40 321.40,332.08 328.63,331.35 C337.25,330.48 341.48,331.53 346.06,335.67 C350.72,339.88 350.96,341.45 347.25,343.39 C339.79,347.30 334.08,357.16 333.24,367.57 C332.57,375.93 334.22,382.07 339.54,390.96 C346.25,402.17 346.12,402.91 332.07,433.89 C328.73,441.25 326.00,447.47 326.00,447.70 C326.00,448.41 335.09,446.89 342.50,444.95 C354.08,441.92 369.79,436.13 379.00,431.50 C389.43,426.26 406.46,414.86 413.86,408.16 C418.31,404.13 419.11,402.91 418.52,401.05 C417.03,396.37 406.58,387.50 394.95,381.04 C371.85,368.21 365.16,360.94 357.36,340.22 C351.78,325.40 347.57,320.04 339.87,317.96 C331.49,315.71 319.79,319.30 305.30,328.59 C288.89,339.12 266.11,350.98 262.27,351.00 C260.07,351.00 258.25,355.28 254.18,370.00 C243.55,408.50 240.90,422.77 241.25,439.72 C241.52,453.00 241.65,453.25 247.38,452.42 C248.96,452.19 257.56,452.00 266.50,452.00 ZM 141.00 449.45 C141.00,445.98 143.54,441.32 146.26,439.83 C147.49,439.15 150.52,438.35 152.99,438.05 C156.73,437.59 157.72,437.00 158.93,434.50 C162.50,427.11 161.40,416.01 153.34,378.50 C150.23,364.01 148.03,356.11 146.26,353.00 C139.55,341.28 136.99,335.96 134.96,329.50 C132.43,321.48 130.47,318.48 131.53,324.25 C132.38,328.86 131.31,328.99 127.39,324.75 C117.60,314.14 110.33,302.08 105.84,289.00 C102.81,280.16 102.58,278.57 102.54,266.00 C102.52,258.58 102.83,249.35 103.24,245.50 L 103.99 238.50 L 100.56 245.50 L 97.14 252.50 L 97.00 452.00 L 141.00 452.00 ZM 185.76 198.75 C182.23,194.10 178.91,187.29 177.36,181.50 C175.65,175.09 175.65,162.91 177.36,156.50 C178.62,151.81 183.55,141.00 184.44,141.00 C184.66,141.00 185.53,140.73 186.37,140.41 C187.68,139.91 187.77,140.33 186.96,143.15 C185.25,149.11 185.84,157.10 188.38,162.58 C191.84,170.01 194.86,172.00 202.63,172.00 C206.14,172.00 209.00,172.34 208.99,172.75 C208.98,173.16 208.31,175.71 207.49,178.41 C205.53,184.87 205.64,188.61 207.94,193.67 C211.32,201.13 217.77,203.37 227.59,200.52 C233.84,198.70 240.00,193.48 240.00,190.00 C240.00,187.56 235.86,184.38 231.65,183.59 C228.33,182.97 224.12,179.55 225.26,178.40 C225.59,178.08 232.22,177.57 240.01,177.26 C250.42,176.85 254.31,176.35 254.69,175.38 C254.96,174.65 253.04,171.00 250.41,167.28 C239.92,152.43 239.00,150.82 239.00,147.40 C239.00,143.69 240.45,142.80 241.29,146.00 C241.67,147.46 242.65,148.00 244.91,148.00 C247.71,148.00 248.00,147.70 248.00,144.87 C248.00,138.28 237.70,124.97 231.37,123.38 C227.83,122.49 226.00,124.99 226.00,130.69 C226.00,133.06 225.63,135.00 225.17,135.00 C224.71,135.00 222.93,133.25 221.21,131.11 C216.71,125.52 210.62,122.84 203.01,123.11 L 196.88 123.33 L 192.51 118.33 C189.52,114.92 186.17,112.45 181.94,110.55 C176.28,108.01 174.95,107.81 166.62,108.20 C159.64,108.53 156.44,109.17 153.00,110.95 C147.59,113.73 142.73,117.07 143.29,117.62 C143.51,117.84 147.15,116.89 151.37,115.51 C160.66,112.48 168.53,112.29 176.88,114.88 C183.62,116.98 190.56,120.75 193.33,123.81 C195.12,125.79 195.05,125.89 189.33,129.78 C181.11,135.37 174.39,142.94 170.71,150.78 C167.81,156.94 167.55,158.33 167.58,167.50 C167.62,182.34 171.93,191.59 182.32,199.12 C187.55,202.90 188.82,202.77 185.76,198.75 ZM 472.51 227.29 C469.19,209.37 463.53,191.93 456.42,177.81 C451.51,168.03 437.29,147.50 430.22,139.96 L 423.22 132.50 L 419.36 135.60 C405.05,147.08 404.79,169.67 418.79,185.19 C420.83,187.46 428.58,194.57 436.00,201.01 C443.42,207.44 454.90,218.31 461.50,225.17 C468.10,232.03 473.64,237.29 473.82,236.86 C473.99,236.44 473.41,232.13 472.51,227.29 ZM 182.94 324.39 C185.35,309.06 185.58,293.77 183.51,286.00 C181.12,276.98 175.46,266.78 165.59,253.64 C152.86,236.72 150.41,233.05 146.36,224.85 C141.36,214.74 139.00,204.56 139.00,193.14 C139.00,182.43 138.19,182.19 135.22,192.00 C128.54,214.10 133.56,237.51 150.64,263.82 C162.19,281.61 167.53,295.49 173.97,324.50 C176.29,334.95 178.47,343.95 178.81,344.50 C179.50,345.60 179.92,343.56 182.94,324.39 ZM 100.91 180.28 C103.46,172.70 103.58,170.56 101.41,171.40 C98.62,172.47 97.96,170.98 99.98,168.20 C101.06,166.71 102.83,161.68 103.92,157.00 C106.63,145.30 108.29,140.97 112.44,134.82 C116.50,128.78 116.70,128.00 114.20,128.00 C112.37,128.00 110.00,126.22 110.00,124.85 C110.00,124.43 111.91,123.23 114.25,122.18 C119.31,119.89 122.16,116.85 128.01,107.50 C137.06,93.01 142.96,87.63 154.49,83.34 L 160.50 81.10 L 128.75 81.05 L 97.00 81.00 L 97.03 135.25 C97.05,166.83 97.43,188.87 97.94,188.00 C98.42,187.18 99.76,183.70 100.91,180.28 ZM 237.00 317.52 C242.23,313.55 248.10,308.53 250.06,306.36 C257.08,298.58 263.61,287.54 265.93,279.50 C269.25,267.99 268.91,249.31 265.15,237.24 C263.36,231.48 258.24,221.43 257.49,222.18 C257.30,222.36 257.80,225.21 258.60,228.51 C260.75,237.34 260.48,252.85 258.03,262.50 C254.04,278.16 245.56,292.97 229.91,311.60 C223.09,319.72 216.49,329.87 214.37,335.50 C213.95,336.62 216.68,334.68 220.56,331.12 C224.38,327.62 231.77,321.50 237.00,317.52 ZM 191.25 447.44 C191.89,441.81 195.13,438.00 199.28,438.00 C201.48,438.00 202.07,438.38 201.64,439.50 C201.32,440.33 201.50,441.00 202.03,441.00 C202.56,441.00 203.00,440.63 203.00,440.17 C203.00,439.71 204.12,438.74 205.50,438.00 C208.29,436.51 208.79,435.00 206.50,435.00 C204.53,435.00 204.58,431.71 206.61,427.79 C210.30,420.64 215.02,380.00 212.15,380.00 C208.49,380.00 197.00,392.75 197.00,396.81 C197.00,397.97 196.52,397.91 194.41,396.54 C192.99,395.60 191.65,395.02 191.44,395.23 C191.22,395.45 190.58,406.17 190.01,419.06 C189.05,440.86 188.64,445.71 187.36,450.25 C187.01,451.48 187.44,452.00 188.80,452.00 C190.36,452.00 190.84,451.11 191.25,447.44 ZM 216.91 282.50 C217.03,264.20 213.09,256.39 193.45,236.02 C178.90,220.92 175.12,216.16 170.62,207.25 C169.16,204.36 167.72,202.00 167.42,202.00 C167.12,202.00 167.17,204.14 167.52,206.75 C169.22,219.36 173.94,230.08 185.36,247.22 C192.09,257.34 194.76,260.24 193.65,256.25 C193.38,255.29 192.87,253.49 192.51,252.25 C191.45,248.56 193.60,249.68 197.29,254.75 C205.36,265.83 210.12,276.85 212.05,288.89 C212.63,292.53 213.37,296.62 213.70,298.00 C214.85,302.80 216.84,293.18 216.91,282.50 ZM 0.00 0.00 L 0.09 23.25 C0.16,44.21 0.30,45.98 1.44,41.27 C6.24,21.46 22.83,5.49 42.75,1.53 C49.17,0.25 48.28,0.18 24.75,0.09 ZM 0.00 540.00 L 46.50 539.89 L 39.48 538.05 C21.66,533.37 7.16,519.08 2.04,501.14 L 0.14 494.50 L 0.00 540.00 ZM 149.72 280.75 C147.26,276.21 143.47,269.80 141.29,266.50 C128.20,246.68 119.00,226.21 119.00,216.92 C119.00,215.86 118.59,215.00 118.09,215.00 C116.78,215.00 115.66,228.82 116.46,235.15 C118.18,248.81 124.91,263.55 133.82,273.18 C139.63,279.45 141.12,280.07 138.57,275.14 C137.71,273.47 137.00,271.63 137.00,271.05 C137.00,268.35 139.46,270.75 145.68,279.50 C149.40,284.73 152.83,289.00 153.31,289.00 C153.79,289.00 152.17,285.29 149.72,280.75 ZM 244.10 216.36 C245.83,214.63 247.31,211.89 247.65,209.75 C248.17,206.58 247.83,205.67 245.12,202.97 C241.53,199.38 239.72,199.46 230.21,203.67 C227.14,205.03 222.46,206.39 219.82,206.71 C214.82,207.30 214.32,207.86 216.00,211.00 C218.69,216.03 228.16,220.17 235.82,219.67 C240.12,219.39 241.70,218.76 244.10,216.36 ZM 234.54 285.37 C244.78,269.36 246.67,247.64 239.06,233.24 L 237.09 229.50 L 237.02 237.50 C236.98,241.90 236.53,247.30 236.01,249.50 C235.50,251.70 234.35,259.58 233.47,267.00 C232.03,279.07 231.11,284.30 229.33,290.38 C228.41,293.54 230.76,291.28 234.54,285.37 ZM 123.79 189.25 C125.99,185.54 131.67,176.99 136.40,170.25 C141.13,163.52 145.00,157.73 145.00,157.39 C145.00,157.05 143.90,157.49 142.55,158.37 C139.17,160.59 138.58,158.91 141.31,154.87 C145.38,148.85 145.44,148.69 143.35,149.81 C140.29,151.45 131.60,161.11 128.66,166.14 C123.85,174.35 117.05,196.00 119.27,196.00 C119.55,196.00 121.58,192.96 123.79,189.25 ZM 199.56 99.06 C197.47,96.92 193.07,93.96 189.80,92.49 C184.42,90.07 182.91,89.85 174.17,90.16 C165.71,90.46 163.68,90.90 158.00,93.69 C151.63,96.81 146.30,100.63 147.14,101.47 C147.37,101.70 151.51,100.57 156.33,98.95 C170.30,94.25 183.50,94.91 196.36,100.94 C199.74,102.52 202.70,103.63 202.94,103.39 C203.17,103.16 201.66,101.21 199.56,99.06 ZM 250.52 340.77 C256.33,334.31 263.55,322.17 265.55,315.50 C267.48,309.10 268.37,297.37 267.22,293.50 C266.36,290.57 266.31,290.62 265.03,296.00 C261.77,309.68 254.07,328.60 246.61,341.25 C245.07,343.86 244.26,346.00 244.81,346.00 C245.36,346.00 247.93,343.65 250.52,340.77 ZM 215.80 162.01 C213.75,159.05 212.05,157.84 208.80,157.03 C203.97,155.82 195.04,151.83 195.02,150.87 C194.96,148.78 198.48,147.77 204.06,148.27 C210.08,148.82 210.09,148.81 210.67,145.91 C210.99,144.31 211.63,143.00 212.09,143.00 C213.46,143.00 215.00,146.64 215.00,149.88 C215.00,151.53 215.85,154.37 216.88,156.19 C218.18,158.48 219.27,161.89 219.56,164.01 C219.40,163.81 219.21,163.63 219.00,163.50 C218.45,163.16 218.00,163.58 218.00,164.44 C218.00,164.61 218.02,164.78 218.05,164.94 C217.41,164.21 216.59,163.17 215.80,162.01 ZM 162.54 131.96 C163.91,130.67 167.98,128.90 171.75,127.95 L 178.50 126.24 L 174.78 124.62 C169.98,122.53 162.57,122.55 158.99,124.67 C152.76,128.35 152.25,136.89 157.88,143.36 C159.41,145.12 159.52,144.91 159.80,139.74 C160.03,135.45 160.62,133.76 162.54,131.96 ZM 252.94 199.06 C256.18,195.82 258.09,186.27 256.12,183.16 C254.45,180.53 244.00,187.50 244.00,191.24 C244.00,194.42 248.15,201.00 250.15,201.00 C250.62,201.00 251.87,200.13 252.94,199.06 ZM 125.68 149.85 C129.63,143.87 134.68,136.86 136.89,134.27 C139.10,131.69 140.72,129.39 140.50,129.17 C139.64,128.31 133.06,133.24 128.11,138.47 C122.55,144.36 117.50,153.96 116.53,160.50 C116.02,163.97 116.11,164.25 117.22,162.61 C117.92,161.57 121.73,155.83 125.68,149.85 ZM 206.37 95.44 C204.43,92.48 198.04,87.88 192.88,85.72 C187.90,83.64 179.98,82.70 177.00,83.83 C174.61,84.73 174.68,84.81 178.50,85.51 C184.58,86.63 196.96,91.62 202.00,94.99 C207.51,98.66 208.55,98.77 206.37,95.44 ZM 230.61 92.91 C231.38,87.99 229.04,81.58 226.33,81.19 L 224.16 80.88 L 226.08 84.65 C227.21,86.88 228.00,90.46 228.00,93.41 C228.00,99.03 229.70,98.71 230.61,92.91 ZM 218.81 86.87 C216.13,82.07 213.00,79.68 210.59,80.60 C209.22,81.13 209.90,82.16 214.20,86.08 C217.12,88.74 219.87,90.93 220.31,90.95 C220.76,90.98 220.09,89.14 218.81,86.87 ZM 100.57 206.49 C102.01,203.04 102.00,203.00 99.51,203.00 C97.14,203.00 97.00,203.30 97.03,208.25 C97.06,213.87 97.59,213.61 100.57,206.49 ZM 219.30 165.96 C219.32,165.95 219.34,165.94 219.37,165.93 C219.34,165.95 219.32,165.95 219.30,165.96 Z" fill="rgb(142,218,1)"/>
<path d="M 219.30 165.96 C219.27,165.96 219.25,165.96 219.23,165.96 C219.04,165.95 218.61,165.57 218.05,164.94 C218.02,164.78 218.00,164.61 218.00,164.44 C218.00,163.58 218.45,163.16 219.00,163.50 C219.21,163.63 219.40,163.81 219.56,164.01 C219.71,165.05 219.66,165.79 219.37,165.93 C219.34,165.94 219.32,165.95 219.30,165.96 ZM 517.39 0.89 C503.44,1.04 497.92,1.22 497.92,1.43 C497.92,1.45 497.94,1.46 497.99,1.48 C497.33,1.35 496.66,1.24 496.00,1.15 C495.97,1.15 495.96,1.14 495.96,1.14 C495.96,1.05 503.29,0.97 517.39,0.89 ZM 37.53 2.86 C38.66,2.50 39.80,2.16 40.96,1.86 L 46.08 0.54 C46.52,0.75 45.15,1.05 42.75,1.53 C40.98,1.88 39.24,2.33 37.53,2.86 ZM 18.61 13.47 C10.26,20.68 4.07,30.39 1.44,41.27 C4.09,30.32 10.19,20.67 18.61,13.47 ZM 510.16 5.61 C520.36,10.53 529.29,18.68 533.90,27.80 C529.31,18.72 520.27,10.53 510.16,5.61 Z" fill="rgb(140,140,140)"/>
<path d="M 0.07 517.25 L 0.14 494.50 L 2.04 501.14 C7.16,519.08 21.66,533.37 39.48,538.05 L 46.50 539.89 L 23.25 539.94 L 0.00 540.00 L 0.07 517.25 ZM 500.00 538.43 C503.02,537.64 508.77,535.35 512.78,533.35 C525.56,526.94 536.39,512.74 539.01,498.95 C539.65,495.60 540.00,413.43 540.00,269.57 C540.00,23.13 540.44,40.77 533.90,27.80 C527.54,15.19 512.92,4.46 498.09,1.50 C492.62,0.41 614.74,0.17 1215.75,0.09 L 1940.00 0.00 L 1940.00 270.00 L 1940.00 540.00 L 1217.25 539.93 C586.67,539.88 495.20,539.68 500.00,538.43 ZM 933.58 495.54 C936.80,493.43 938.47,486.95 936.97,482.40 C935.74,478.69 933.21,476.55 928.71,475.45 C924.47,474.41 925.96,472.78 932.51,471.29 C944.51,468.57 952.72,460.83 955.38,449.75 L 956.04 447.00 L 947.70 447.00 L 939.37 447.00 L 937.68 450.56 C935.45,455.21 930.45,457.37 923.24,456.77 C917.30,456.28 913.75,454.14 910.16,448.91 C908.18,446.02 907.88,444.54 908.21,439.26 C908.85,428.83 914.31,423.50 924.37,423.50 C931.58,423.50 935.06,425.29 938.20,430.61 L 940.24 434.08 L 947.87 433.79 L 955.50 433.50 L 955.17 430.50 C954.70,426.12 950.09,418.22 946.09,414.92 C940.81,410.57 934.95,409.00 924.07,409.01 C915.92,409.02 913.68,409.40 909.00,411.57 C897.77,416.79 892.90,424.49 892.21,438.14 C891.66,448.85 893.48,454.99 899.09,461.36 C903.01,465.81 911.99,471.00 915.77,471.00 C918.91,471.00 919.02,472.02 916.43,477.14 C913.59,482.73 913.66,482.80 922.00,483.22 C927.38,483.49 927.50,483.56 927.50,486.50 C927.50,489.29 927.24,489.50 923.84,489.50 C921.08,489.50 919.67,490.15 918.11,492.14 C916.29,494.45 916.21,494.93 917.52,496.02 C921.21,499.08 928.51,498.86 933.58,495.54 ZM 684.33 469.03 C695.67,464.69 700.94,457.47 700.98,446.22 C701.04,429.55 693.71,424.47 666.00,421.96 C653.35,420.82 648.37,419.03 646.05,414.82 C644.16,411.40 645.40,407.52 649.32,404.60 C651.82,402.75 653.52,402.50 663.87,402.50 C677.14,402.50 679.85,403.51 682.72,409.55 L 684.37 413.00 L 692.19 413.00 C700.99,413.00 700.84,413.19 698.46,405.17 C696.39,398.19 692.13,393.60 685.19,390.83 C680.15,388.83 677.78,388.57 664.50,388.60 C651.18,388.62 648.83,388.89 643.50,390.97 C630.91,395.88 625.64,405.96 629.12,418.50 C630.64,423.97 637.16,430.21 644.00,432.74 C647.33,433.97 654.62,435.25 662.50,435.97 C677.55,437.35 682.04,438.99 683.32,443.56 C684.62,448.19 682.13,453.22 677.37,455.58 C674.33,457.09 671.36,457.50 663.50,457.50 C654.74,457.50 652.97,457.20 649.25,455.07 C646.92,453.73 644.44,451.37 643.76,449.82 C642.55,447.08 642.30,447.00 634.76,447.00 C629.97,447.00 627.00,447.41 627.00,448.06 C627.00,451.87 629.74,458.51 632.79,462.07 C639.14,469.49 648.26,472.10 666.00,471.61 C675.93,471.33 679.70,470.80 684.33,469.03 ZM 757.50 469.13 C764.00,466.24 770.30,459.99 773.17,453.60 C776.32,446.57 776.43,433.56 773.38,426.95 C770.60,420.91 765.76,415.53 760.13,412.23 C756.12,409.88 754.21,409.48 745.35,409.16 C732.13,408.67 726.57,410.40 719.30,417.27 C710.27,425.82 707.34,439.81 711.99,452.24 C714.01,457.64 720.91,465.43 726.00,468.06 C734.82,472.61 748.62,473.08 757.50,469.13 ZM 855.30 468.67 C857.78,467.21 860.74,464.78 861.88,463.26 L 863.94 460.50 L 863.97 463.67 C864.03,469.69 864.48,470.00 873.11,470.00 L 881.00 470.00 L 881.00 440.00 L 881.00 410.00 L 872.50 410.00 L 864.00 410.00 L 864.00 427.75 C864.00,447.73 863.26,450.62 857.10,454.73 C852.99,457.47 844.49,457.82 839.87,455.43 C834.59,452.70 833.62,448.70 833.35,428.50 L 833.12 410.50 L 825.06 410.21 L 817.00 409.92 L 817.01 430.71 C817.01,452.47 817.57,456.61 821.26,462.03 C826.11,469.15 833.19,472.20 843.64,471.67 C849.13,471.40 851.84,470.70 855.30,468.67 ZM 1012.51 468.73 C1018.44,465.69 1023.90,460.20 1027.14,454.00 C1029.15,450.17 1029.49,448.08 1029.47,440.00 C1029.43,429.22 1027.68,424.55 1021.14,417.67 C1015.00,411.20 1010.95,409.65 999.00,409.21 C990.08,408.88 987.64,409.14 982.80,410.96 C963.52,418.21 957.59,445.31 971.81,461.14 C979.23,469.39 986.43,472.17 999.01,471.64 C1005.68,471.36 1008.59,470.73 1012.51,468.73 ZM 1089.02 467.90 C1093.69,465.36 1096.41,463.03 1098.75,459.57 C1103.59,452.42 1103.33,452.00 1094.11,452.00 C1088.03,452.00 1086.08,452.34 1085.64,453.49 C1083.67,458.63 1070.84,460.79 1063.98,457.15 C1060.16,455.11 1056.00,449.76 1056.00,446.85 C1056.00,445.10 1057.31,445.00 1080.13,445.00 L 1104.26 445.00 L 1103.79 437.58 C1102.93,424.27 1095.80,414.09 1084.77,410.42 C1077.63,408.05 1061.07,408.79 1055.44,411.73 C1045.59,416.87 1039.89,426.11 1039.20,438.06 C1038.27,454.13 1045.43,464.92 1060.84,470.66 C1063.22,471.55 1067.66,471.92 1073.52,471.73 C1081.67,471.46 1083.18,471.08 1089.02,467.90 ZM 1157.30 469.99 C1164.85,467.66 1169.26,463.45 1171.03,456.90 C1173.18,448.92 1169.74,440.04 1163.48,437.43 C1161.57,436.63 1154.37,435.35 1147.49,434.59 C1132.81,432.98 1129.72,431.57 1130.19,426.71 C1130.60,422.57 1133.70,421.03 1141.68,421.01 C1149.33,421.00 1152.68,422.20 1154.19,425.52 C1155.30,427.96 1155.69,428.07 1162.43,427.79 L 1169.50 427.50 L 1169.19 424.50 C1168.66,419.29 1165.58,414.64 1160.92,412.01 C1157.03,409.81 1155.07,409.47 1144.47,409.16 C1127.51,408.66 1120.15,411.16 1115.59,418.96 C1113.07,423.27 1112.95,431.23 1115.34,435.75 C1118.88,442.47 1125.29,444.79 1145.26,446.56 C1152.82,447.23 1155.00,448.69 1155.00,453.05 C1155.00,457.49 1151.26,459.42 1142.60,459.44 C1134.78,459.46 1129.60,457.47 1128.50,454.01 C1127.94,452.23 1127.00,452.00 1120.43,452.00 C1113.75,452.00 1113.00,452.20 1113.00,453.93 C1113.00,458.98 1117.69,465.71 1123.22,468.60 C1130.61,472.46 1147.12,473.13 1157.30,469.99 ZM 1444.57 470.54 C1447.28,469.73 1451.62,467.72 1454.21,466.08 L 1458.93 463.09 L 1459.58 466.59 L 1460.24 470.08 L 1467.37 469.79 L 1474.50 469.50 L 1474.49 446.00 C1474.48,419.92 1474.20,418.54 1467.75,413.63 C1462.81,409.86 1456.60,408.75 1442.81,409.15 C1432.09,409.46 1429.86,409.83 1425.55,412.00 C1419.50,415.06 1416.78,418.60 1416.62,423.66 L 1416.50 427.50 L 1423.67 427.79 C1430.24,428.06 1430.90,427.91 1431.52,425.95 C1432.87,421.68 1445.18,419.42 1452.76,422.06 C1456.22,423.27 1458.33,427.26 1457.83,431.64 L 1457.50 434.50 L 1442.00 435.02 C1428.10,435.48 1425.98,435.79 1421.50,438.02 C1415.41,441.04 1413.00,445.23 1413.00,452.78 C1413.00,461.85 1416.88,467.77 1424.66,470.54 C1429.74,472.35 1438.46,472.35 1444.57,470.54 ZM 1610.74 469.05 C1618.63,465.61 1624.28,458.63 1626.39,449.75 L 1627.04 447.00 L 1619.12 447.00 L 1611.20 447.00 L 1609.10 450.55 C1606.36,455.20 1601.23,457.35 1594.24,456.77 C1588.60,456.30 1585.07,454.31 1581.56,449.61 C1579.95,447.45 1579.50,445.36 1579.50,440.00 C1579.50,431.83 1581.30,428.71 1588.06,425.18 C1591.71,423.28 1593.45,422.97 1597.86,423.45 C1604.05,424.14 1606.25,425.44 1609.64,430.41 C1612.04,433.95 1612.17,434.00 1618.98,434.00 C1622.77,434.00 1626.13,433.61 1626.42,433.12 C1627.46,431.45 1624.04,422.48 1620.96,418.75 C1619.25,416.69 1615.75,413.76 1613.18,412.25 C1608.75,409.65 1607.83,409.50 1596.00,409.50 C1584.03,409.50 1583.27,409.62 1578.18,412.45 C1568.44,417.85 1563.00,427.64 1563.01,439.76 C1563.01,448.04 1564.12,452.22 1567.88,458.15 C1571.47,463.82 1576.57,467.80 1583.33,470.21 C1590.52,472.77 1603.48,472.23 1610.74,469.05 ZM 1679.44 470.57 C1686.26,468.52 1691.66,464.60 1695.05,459.25 C1699.45,452.33 1699.23,452.00 1690.11,452.00 C1684.03,452.00 1682.08,452.34 1681.64,453.49 C1680.52,456.42 1674.71,458.99 1669.21,459.00 C1660.47,459.00 1654.19,454.79 1652.46,447.75 L 1651.78 445.00 L 1675.89 445.00 L 1700.00 445.00 L 1700.00 439.04 C1700.00,427.66 1693.76,416.60 1684.57,411.68 C1681.01,409.77 1678.93,409.50 1668.00,409.50 C1653.27,409.50 1650.19,410.66 1642.65,419.05 C1637.35,424.93 1635.00,431.39 1635.00,440.00 C1635.00,455.21 1642.92,466.06 1657.29,470.55 C1662.94,472.32 1673.60,472.33 1679.44,470.57 ZM 1838.65 470.51 C1841.41,469.69 1845.56,467.66 1847.86,465.99 C1852.13,462.90 1852.48,463.00 1853.20,467.50 C1853.48,469.25 1854.41,469.54 1860.76,469.79 L 1868.00 470.09 L 1868.00 446.70 C1868.00,424.17 1867.91,423.15 1865.68,418.93 C1863.99,415.73 1862.05,413.87 1858.46,412.02 C1853.85,409.65 1852.63,409.50 1838.50,409.50 C1824.34,409.50 1823.15,409.65 1818.50,412.04 C1813.08,414.83 1810.33,418.62 1809.83,424.00 L 1809.50 427.50 L 1816.75 427.79 C1823.68,428.07 1824.05,427.97 1825.16,425.54 C1826.69,422.19 1832.53,420.62 1840.96,421.29 C1848.82,421.91 1851.00,423.94 1851.00,430.61 L 1851.00 435.00 L 1838.64 435.00 C1819.40,435.00 1813.61,436.61 1808.56,443.39 C1806.96,445.54 1806.50,447.64 1806.51,452.83 C1806.51,461.58 1808.75,465.48 1815.90,469.22 C1822.14,472.47 1830.45,472.95 1838.65,470.51 ZM 1926.61 468.44 C1933.98,464.76 1936.96,460.08 1936.98,452.15 C1937.02,440.00 1932.56,436.71 1913.10,434.55 C1899.29,433.02 1896.29,431.92 1895.31,428.08 C1894.84,426.23 1895.34,425.10 1897.40,423.33 C1899.66,421.39 1901.23,421.00 1906.81,421.01 C1915.70,421.03 1917.80,421.71 1919.57,425.13 C1920.99,427.87 1921.36,428.00 1928.03,428.00 C1934.75,428.00 1935.00,427.91 1935.00,425.57 C1935.00,418.92 1930.11,412.86 1922.78,410.43 C1915.43,407.99 1895.04,408.76 1889.50,411.69 C1881.67,415.83 1878.23,422.39 1879.49,430.79 C1880.01,434.27 1881.11,436.34 1883.88,439.11 C1888.28,443.51 1892.11,444.68 1906.64,446.06 C1918.51,447.18 1921.00,448.41 1921.00,453.13 C1921.00,457.48 1917.19,459.42 1908.60,459.45 C1900.69,459.48 1896.06,457.77 1894.51,454.25 C1893.62,452.21 1892.83,452.00 1886.26,452.00 C1879.15,452.00 1879.00,452.05 1879.00,454.54 C1879.00,458.15 1882.56,464.67 1885.63,466.68 C1891.89,470.78 1898.04,472.07 1909.61,471.72 C1919.54,471.42 1921.36,471.07 1926.61,468.44 ZM 803.00 429.00 L 803.00 388.00 L 795.00 388.00 L 787.00 388.00 L 787.00 429.00 L 787.00 470.00 L 795.00 470.00 L 803.00 470.00 L 803.00 429.00 ZM 1244.00 455.50 L 1244.00 441.00 L 1268.50 441.00 L 1293.00 441.00 L 1293.00 433.50 L 1293.00 426.00 L 1268.50 426.00 L 1244.00 426.00 L 1244.00 415.50 L 1244.00 405.00 L 1269.33 405.00 C1283.27,405.00 1294.85,404.81 1295.08,404.59 C1295.31,404.36 1295.35,400.99 1295.17,397.09 L 1294.84 390.00 L 1260.92 390.00 L 1227.00 390.00 L 1227.00 430.00 L 1227.00 470.00 L 1235.50 470.00 L 1244.00 470.00 L 1244.00 455.50 ZM 1324.00 440.00 L 1324.00 410.00 L 1316.00 410.00 L 1308.00 410.00 L 1308.00 440.00 L 1308.00 470.00 L 1316.00 470.00 L 1324.00 470.00 L 1324.00 440.00 ZM 1355.00 452.25 C1355.00,437.33 1355.28,433.95 1356.75,431.07 C1359.68,425.33 1363.14,423.50 1371.06,423.50 C1377.45,423.51 1378.21,423.74 1381.06,426.60 C1383.67,429.21 1384.30,430.83 1385.11,437.09 C1385.64,441.17 1385.98,450.12 1385.87,457.00 L 1385.66 469.50 L 1393.83 469.79 L 1402.00 470.08 L 1402.00 449.08 C1402.00,430.51 1401.77,427.45 1400.00,422.72 C1396.27,412.77 1389.92,409.00 1376.85,409.00 C1367.47,409.00 1361.77,411.11 1357.52,416.15 L 1355.00 419.15 L 1355.00 416.16 C1355.00,410.35 1354.48,410.00 1345.89,410.00 L 1338.00 410.00 L 1338.00 440.00 L 1338.00 470.00 L 1346.50 470.00 L 1355.00 470.00 L 1355.00 452.25 ZM 1505.19 450.75 C1505.47,433.35 1505.69,431.24 1507.50,428.79 C1511.31,423.63 1521.89,421.34 1527.80,424.40 C1534.27,427.74 1534.45,428.38 1535.00,449.85 L 1535.50 469.50 L 1543.84 469.79 L 1552.17 470.08 L 1551.83 448.29 C1551.51,428.13 1551.32,426.13 1549.20,421.54 C1546.28,415.18 1544.43,413.15 1539.50,410.88 C1534.87,408.76 1522.86,408.36 1516.52,410.12 C1514.27,410.74 1510.86,412.91 1508.65,415.11 C1504.72,419.04 1503.90,419.61 1504.12,418.25 C1504.18,417.84 1504.18,415.81 1504.12,413.75 L 1504.00 410.00 L 1496.00 410.00 L 1488.00 410.00 L 1488.00 440.00 L 1488.00 470.00 L 1496.44 470.00 L 1504.88 470.00 L 1505.19 450.75 ZM 1728.00 440.00 L 1728.00 410.00 L 1719.50 410.00 L 1711.00 410.00 L 1711.00 440.00 L 1711.00 470.00 L 1719.50 470.00 L 1728.00 470.00 L 1728.00 440.00 ZM 1758.00 451.75 C1758.00,436.38 1758.28,432.95 1759.75,430.00 C1762.13,425.24 1767.14,422.77 1773.34,423.31 C1779.51,423.84 1783.11,427.16 1783.93,433.07 L 1784.50 437.24 L 1790.75 437.18 C1794.19,437.15 1797.45,437.09 1798.00,437.06 C1798.55,437.03 1799.00,434.19 1799.00,430.68 C1799.00,425.77 1798.39,423.15 1796.25,418.93 C1792.48,411.48 1788.04,409.04 1778.22,409.02 C1769.49,409.00 1765.55,410.48 1761.23,415.39 L 1758.00 419.07 L 1758.00 416.12 C1758.00,410.41 1757.42,410.00 1749.42,410.00 L 1742.06 410.00 L 1741.78 439.58 C1741.63,455.86 1741.69,469.36 1741.92,469.58 C1742.15,469.81 1745.86,470.00 1750.17,470.00 L 1758.00 470.00 L 1758.00 451.75 ZM 996.62 398.41 C1004.48,395.83 1012.44,395.51 1018.75,397.52 C1020.91,398.21 1021.00,398.00 1021.00,392.24 C1021.00,386.42 1020.90,386.20 1017.75,384.87 C1013.05,382.89 1003.49,383.32 996.28,385.83 C989.01,388.37 982.38,388.60 977.35,386.50 C975.37,385.67 973.59,385.00 973.38,385.00 C973.17,385.00 973.00,387.64 973.00,390.88 C973.00,397.20 973.83,398.52 978.69,399.98 C983.68,401.48 988.58,401.06 996.62,398.41 ZM 1725.75 397.41 C1728.63,394.19 1728.75,388.75 1726.00,386.00 C1723.41,383.41 1716.11,383.27 1713.08,385.75 C1710.06,388.23 1709.65,393.29 1712.22,396.55 C1716.18,401.59 1721.70,401.94 1725.75,397.41 ZM 1322.93 397.37 C1325.24,394.42 1325.57,390.96 1323.85,387.68 C1322.20,384.55 1321.07,384.03 1315.82,384.02 C1311.95,384.00 1310.79,384.45 1309.07,386.63 C1306.73,389.61 1306.47,392.13 1308.16,395.32 C1309.99,398.74 1312.17,399.93 1316.68,399.97 C1320.02,399.99 1321.27,399.47 1322.93,397.37 ZM 1036.05 354.55 C1048.53,352.37 1057.10,349.53 1069.76,343.35 C1079.08,338.80 1082.48,336.47 1089.51,329.82 C1094.18,325.40 1098.00,322.08 1098.00,322.44 C1098.00,322.80 1097.39,324.31 1096.65,325.80 C1095.43,328.22 1095.64,329.60 1098.68,339.25 L 1102.06 350.00 L 1137.59 350.00 L 1173.12 350.00 L 1172.74 266.25 C1172.31,172.90 1172.60,177.00 1165.23,162.00 C1154.85,140.88 1130.13,127.38 1092.61,122.36 C1076.16,120.16 1039.96,120.20 1023.00,122.43 C986.79,127.19 963.43,138.76 952.55,157.33 C947.19,166.47 944.82,175.43 944.25,188.75 L 943.73 201.00 L 980.70 201.00 L 1017.68 201.00 L 1018.99 197.04 C1020.54,192.33 1025.23,187.24 1029.76,185.33 C1035.46,182.94 1052.83,181.73 1064.59,182.92 C1084.03,184.87 1088.18,188.67 1088.84,205.13 L 1089.22 214.81 L 1044.36 215.28 C1004.00,215.71 998.55,215.97 990.00,217.81 C964.03,223.42 948.87,233.33 940.61,250.11 C935.14,261.23 933.74,269.56 934.25,288.00 C934.63,301.73 935.01,304.46 937.53,311.92 C945.76,336.26 967.53,352.16 997.91,356.04 C1006.60,357.15 1025.37,356.41 1036.05,354.55 ZM 1355.50 355.97 C1371.71,354.14 1388.76,348.07 1400.60,339.93 C1413.86,330.81 1428.78,313.39 1436.48,298.02 C1454.04,263.01 1454.48,215.96 1437.58,181.45 C1423.20,152.10 1400.46,132.39 1372.53,125.07 C1360.10,121.81 1343.84,120.51 1332.27,121.83 C1318.94,123.36 1312.16,125.28 1301.00,130.65 C1292.56,134.72 1290.30,136.43 1280.75,146.03 C1274.84,151.97 1270.00,156.59 1270.00,156.30 C1270.00,156.00 1271.57,153.17 1273.50,150.00 L 1277.00 144.24 L 1277.00 94.62 L 1277.00 45.00 L 1235.00 45.00 L 1193.00 45.00 L 1193.00 197.51 L 1193.00 350.02 L 1234.25 349.76 L 1275.50 349.50 L 1275.79 339.75 C1275.94,334.39 1276.33,330.00 1276.64,330.00 C1276.95,330.00 1280.31,332.88 1284.10,336.39 C1301.31,352.32 1326.53,359.24 1355.50,355.97 ZM 1552.05 354.55 C1564.53,352.37 1573.10,349.53 1585.76,343.35 C1595.08,338.80 1598.48,336.47 1605.51,329.82 C1610.18,325.40 1614.00,322.08 1614.00,322.44 C1614.00,322.80 1613.40,324.31 1612.66,325.80 C1611.46,328.21 1611.68,329.64 1614.71,339.25 L 1618.10 350.00 L 1653.61 350.00 L 1689.11 350.00 L 1688.74 266.25 C1688.32,173.13 1688.59,176.94 1681.41,162.40 C1672.78,144.90 1656.11,133.22 1630.11,126.43 C1614.30,122.31 1598.80,120.74 1574.00,120.76 C1541.19,120.79 1519.80,124.00 1501.00,131.70 C1473.86,142.83 1461.58,160.03 1460.27,188.75 L 1459.71 201.00 L 1496.69 201.00 L 1533.68 201.00 L 1534.99 197.04 C1536.54,192.33 1541.23,187.24 1545.76,185.33 C1551.46,182.94 1568.83,181.73 1580.59,182.92 C1600.03,184.87 1604.18,188.67 1604.84,205.13 L 1605.22 214.81 L 1560.36 215.28 C1520.00,215.71 1514.55,215.97 1506.00,217.81 C1480.01,223.42 1464.84,233.34 1456.63,250.11 C1451.25,261.08 1449.69,270.33 1450.26,287.91 C1451.01,310.97 1455.24,322.19 1468.04,335.10 C1479.42,346.57 1494.82,353.60 1513.91,356.04 C1522.60,357.15 1541.37,356.41 1552.05,354.55 ZM 810.63 347.22 C872.95,334.89 916.58,292.46 928.66,232.46 C931.28,219.46 931.28,180.50 928.66,167.03 C923.18,138.83 910.25,113.68 891.24,94.20 C867.81,70.22 838.78,56.28 802.30,51.49 C792.97,50.27 775.80,50.00 707.95,50.00 L 625.00 50.00 L 625.00 200.05 L 625.00 350.09 L 712.25 349.76 C797.44,349.43 799.76,349.37 810.63,347.22 ZM 1793.00 287.55 C1793.00,245.16 1793.36,223.40 1794.12,219.80 C1796.33,209.38 1801.40,201.73 1808.73,197.74 C1819.09,192.10 1838.81,192.13 1847.99,197.79 C1855.90,202.67 1861.00,216.18 1861.00,232.22 C1861.00,238.16 1861.21,238.82 1863.25,239.37 C1866.80,240.32 1936.34,240.07 1937.87,239.10 C1939.00,238.39 1939.15,234.34 1938.71,216.86 C1938.14,193.97 1937.16,187.45 1931.88,171.50 C1923.87,147.30 1907.95,130.58 1886.76,124.12 C1865.44,117.63 1835.69,120.02 1819.27,129.56 C1813.16,133.10 1799.52,146.80 1794.61,154.32 C1790.70,160.30 1788.65,161.50 1791.39,156.22 C1792.77,153.55 1792.76,151.96 1791.29,140.13 L 1789.66 127.00 L 1749.33 127.00 L 1709.00 127.00 L 1709.00 238.50 L 1709.00 350.00 L 1751.00 350.00 L 1793.00 350.00 L 1793.00 287.55 ZM 0.09 23.25 L 0.00 0.00 L 23.75 0.09 L 47.50 0.18 L 40.96 1.86 C21.28,6.94 6.08,22.10 1.44,41.27 C0.30,45.98 0.16,44.21 0.09,23.25 ZM 736.00 455.93 C729.60,453.24 726.00,447.40 726.00,439.70 C726.00,422.50 749.94,416.71 757.82,432.00 C761.68,439.49 759.45,449.35 752.76,454.33 C749.60,456.69 739.98,457.60 736.00,455.93 ZM 989.45 455.65 C982.70,452.59 979.16,445.29 980.30,436.77 C981.43,428.34 987.89,423.46 997.77,423.57 C1005.30,423.66 1008.42,425.54 1011.82,432.06 C1015.91,439.89 1013.81,449.07 1006.70,454.37 C1003.31,456.90 993.77,457.61 989.45,455.65 ZM 1056.39 431.80 C1057.86,424.44 1062.91,421.00 1072.22,421.00 C1080.32,421.01 1084.91,424.55 1087.44,432.75 L 1088.13 435.00 L 1071.94 435.00 L 1055.75 435.00 L 1056.39 431.80 ZM 1433.28 457.98 C1430.91,457.03 1429.62,453.68 1430.17,449.88 C1430.70,446.12 1434.42,445.03 1446.75,445.01 L 1458.00 445.00 L 1458.00 449.55 C1458.00,454.05 1457.95,454.11 1452.75,456.54 C1447.23,459.10 1437.81,459.80 1433.28,457.98 ZM 1652.39 431.80 C1653.86,424.44 1658.91,421.00 1668.22,421.00 C1676.35,421.01 1680.81,424.36 1683.04,432.14 L 1683.86 435.00 L 1667.81 435.00 L 1651.75 435.00 L 1652.39 431.80 ZM 1825.58 456.67 C1824.16,455.25 1823.01,453.06 1823.02,451.80 C1823.05,446.35 1826.41,445.00 1839.93,445.00 L 1851.00 445.00 L 1851.00 449.42 C1851.00,453.42 1850.66,454.05 1847.35,456.09 C1844.65,457.76 1841.68,458.46 1835.93,458.80 C1828.62,459.22 1828.00,459.10 1825.58,456.67 ZM 1031.99 293.13 C1023.37,290.30 1019.00,285.80 1019.00,279.77 C1019.00,273.75 1021.53,269.41 1026.41,267.04 C1030.37,265.13 1032.46,265.00 1059.82,265.00 L 1089.00 265.00 L 1089.00 273.46 L 1089.00 281.92 L 1084.29 284.67 C1081.70,286.19 1075.96,288.75 1071.54,290.36 C1064.31,292.98 1062.04,293.31 1049.00,293.61 C1041.03,293.80 1033.37,293.58 1031.99,293.13 ZM 1314.50 283.28 C1298.32,281.02 1284.37,270.28 1278.82,255.81 C1276.21,249.02 1275.35,236.02 1276.95,227.79 C1279.54,214.53 1289.87,201.61 1301.72,196.84 C1306.85,194.77 1309.14,194.51 1322.00,194.50 C1335.85,194.50 1336.75,194.62 1342.19,197.30 C1359.57,205.83 1368.50,223.79 1365.92,245.04 C1364.65,255.55 1361.58,262.31 1354.78,269.57 C1344.52,280.55 1330.09,285.46 1314.50,283.28 ZM 1546.76 292.64 C1541.01,290.49 1538.07,288.22 1536.33,284.57 C1534.31,280.34 1535.22,273.21 1538.18,270.04 C1542.57,265.33 1545.01,265.00 1575.97,265.00 L 1605.00 265.00 L 1605.00 273.46 L 1605.00 281.92 L 1600.29 284.67 C1597.70,286.19 1591.96,288.75 1587.54,290.36 C1580.34,292.97 1577.98,293.32 1565.00,293.66 C1554.26,293.94 1549.53,293.67 1546.76,292.64 ZM 711.00 199.94 L 711.00 125.88 L 751.75 126.23 C791.14,126.57 792.72,126.66 799.00,128.87 C820.25,136.33 834.84,152.82 841.14,176.50 C842.86,182.97 843.27,187.38 843.27,199.50 C843.27,217.13 841.50,225.41 834.85,239.00 C829.17,250.62 817.80,262.15 807.00,267.26 C793.75,273.53 789.61,274.00 748.05,274.00 L 711.00 274.00 L 711.00 199.94 Z" fill="rgb(254,254,254)"/>
</g>
</svg>