<?xml version="1.0" standalone="no"?>
<!DOCTYPE svg PUBLIC "-//W3C//DTD SVG 20010904//EN"
 "http://www.w3.org/TR/2001/REC-SVG-20010904/DTD/svg10.dtd">
<svg version="1.0" xmlns="http://www.w3.org/2000/svg"
 width="1985.000000pt" height="553.000000pt" viewBox="0 0 1985.000000 553.000000"
 preserveAspectRatio="xMidYMid meet">

<g transform="translate(0.000000,553.000000) scale(0.100000,-0.100000)"
fill="#000000" stroke="none">
<path d="M12200 3510 l0 -1560 425 0 425 0 0 105 c0 58 2 105 5 105 3 0 22
-18 42 -41 123 -136 326 -221 561 -235 401 -25 740 139 960 463 129 190 199
417 209 678 16 391 -96 709 -332 950 -96 98 -167 151 -282 209 -263 132 -628
139 -887 18 -124 -59 -217 -138 -323 -277 -82 -107 -81 -101 10 46 l47 76 0
511 0 512 -430 0 -430 0 0 -1560z m1455 25 c198 -52 325 -225 325 -445 0 -217
-128 -394 -324 -446 -77 -21 -221 -18 -297 6 -164 51 -277 187 -302 366 -35
240 99 461 313 518 73 19 211 20 285 1z"/>
<path d="M6390 3485 l0 -1535 835 0 c525 0 872 4 933 11 210 23 398 77 572
164 146 74 261 159 383 284 252 258 379 553 407 945 25 359 -49 699 -210 961
-236 385 -624 627 -1107 690 -93 12 -267 15 -964 15 l-849 0 0 -1535z m1742
737 c187 -51 316 -157 408 -334 66 -127 83 -206 84 -398 0 -194 -12 -255 -81
-399 -60 -125 -171 -241 -283 -294 -142 -68 -169 -71 -600 -72 l-385 0 -3 763
-2 764 392 -4 c361 -4 399 -6 470 -26z"/>
<path d="M1243 4703 l-253 -3 1 -558 0 -557 20 43 c10 24 25 67 33 97 l14 54
-29 -6 -29 -5 24 43 c13 24 29 69 35 99 20 95 51 177 92 241 22 34 39 62 37
63 -2 1 -16 6 -32 11 -37 13 -44 31 -14 40 56 17 102 62 172 169 104 157 163
208 294 250 28 10 52 19 52 22 0 2 -37 3 -82 2 -46 -2 -197 -4 -335 -5z"/>
<path d="M2190 4651 c36 -32 66 -58 68 -56 5 5 -17 45 -45 83 -18 24 -31 32
-56 32 l-32 0 65 -59z"/>
<path d="M2290 4708 c0 -2 9 -21 20 -43 13 -26 20 -60 21 -100 1 -59 1 -59 14
-30 28 61 7 167 -33 173 -12 2 -22 2 -22 0z"/>
<path d="M2435 4647 c38 -34 77 -68 87 -75 22 -16 15 -32 -16 -32 -12 0 -31
-7 -42 -15 -18 -13 -16 -14 24 -15 54 0 108 -23 149 -62 31 -30 60 -84 51 -93
-2 -3 -22 4 -43 15 -45 23 -87 25 -130 6 -30 -13 -30 -13 30 -20 105 -14 176
-69 191 -147 l7 -34 -24 21 c-13 12 -34 27 -46 33 -31 16 -106 14 -129 -4 -18
-13 -16 -14 27 -15 59 0 91 -25 108 -82 7 -24 24 -64 37 -90 26 -51 23 -58
-14 -32 -13 9 -25 14 -27 12 -2 -2 12 -28 31 -58 37 -59 82 -188 109 -313 18
-82 15 -105 -11 -69 -8 12 -24 26 -34 32 -14 8 -5 -18 35 -97 30 -60 57 -124
61 -143 l7 -35 -51 48 c-28 26 -56 47 -62 47 -5 0 10 -39 34 -87 72 -145 123
-316 146 -488 16 -122 21 -140 31 -124 14 23 10 194 -7 276 -8 42 -29 113 -45
157 -16 44 -27 81 -25 83 1 2 43 -12 92 -31 49 -19 190 -57 314 -86 317 -73
433 -123 540 -230 109 -109 164 -239 221 -522 22 -111 49 -229 60 -263 50
-147 134 -260 274 -365 52 -39 99 -78 104 -87 13 -23 25 -11 85 86 45 74 146
262 146 274 0 2 -26 -9 -57 -24 -110 -51 -257 -63 -383 -31 -58 15 -67 21 -87
57 -28 49 -73 186 -73 222 0 25 2 24 50 -21 74 -69 146 -99 251 -104 99 -5
164 11 241 60 53 33 119 101 142 146 18 35 42 175 52 303 8 105 -11 171 -83
294 -92 158 -400 445 -683 638 -188 128 -248 184 -293 277 -30 61 -32 72 -32
170 0 98 2 110 32 170 38 78 106 149 179 187 30 15 54 30 54 33 0 10 -166 99
-250 135 -162 69 -410 130 -630 154 -52 6 -252 13 -444 15 l-348 5 67 -62z"/>
<path d="M1802 4672 c-10 -6 7 -14 53 -26 72 -18 163 -58 233 -101 36 -22 42
-24 34 -9 -20 36 -78 83 -135 109 -61 28 -162 43 -185 27z"/>
<path d="M1653 4591 c-54 -20 -129 -67 -152 -95 -18 -21 -11 -20 60 9 159 64
312 59 460 -16 34 -16 63 -29 65 -26 11 11 -74 89 -124 114 -49 24 -71 28
-157 30 -78 2 -111 -2 -152 -16z"/>
<path d="M1635 4417 c-66 -18 -184 -81 -173 -93 2 -2 39 8 81 21 91 29 179 32
258 9 71 -21 139 -56 167 -87 l24 -25 -27 -18 c-123 -86 -190 -161 -227 -254
-18 -44 -22 -76 -22 -160 -1 -95 2 -111 27 -165 15 -32 39 -74 53 -92 26 -35
112 -98 121 -90 3 3 -6 21 -20 39 -63 85 -97 185 -97 293 0 117 45 249 104
304 30 28 30 28 11 -24 -24 -68 -19 -141 15 -213 26 -55 36 -66 75 -83 35 -16
56 -19 92 -13 45 7 46 6 39 -17 -44 -155 -25 -239 60 -275 43 -18 68 -18 134
2 73 21 123 71 118 116 -3 31 -7 34 -67 55 -62 21 -81 35 -81 60 0 9 7 10 23
4 12 -4 33 -4 47 0 14 4 73 7 133 8 91 1 107 3 107 17 0 9 -36 67 -81 130 -85
120 -102 164 -75 199 15 19 15 19 16 -12 0 -37 12 -47 46 -39 43 11 29 68 -39
163 -52 73 -132 115 -154 81 -4 -7 -10 -40 -13 -72 l-5 -60 -28 42 c-15 23
-46 54 -69 69 -36 24 -52 28 -119 29 -76 1 -79 2 -106 35 -42 51 -63 68 -120
95 -62 30 -158 39 -228 21z m559 -403 c1 -22 12 -58 24 -81 12 -23 22 -57 22
-75 l0 -33 -20 32 c-22 37 -53 59 -95 68 -29 6 -135 54 -135 61 0 15 68 34
113 32 l52 -3 3 34 c3 30 5 32 19 19 8 -9 16 -33 17 -54z"/>
<path d="M10575 4289 c-618 -50 -908 -278 -918 -719 l-2 -95 376 -3 375 -2 23
55 c37 90 89 119 243 137 73 8 127 8 209 0 207 -21 258 -70 259 -249 l0 -81
-457 -5 c-412 -4 -468 -7 -553 -25 -196 -42 -305 -94 -406 -196 -77 -77 -119
-151 -150 -266 -25 -91 -26 -345 -1 -445 40 -157 136 -296 265 -382 241 -160
667 -176 1016 -36 141 55 222 107 313 199 l83 83 -23 -47 -24 -47 35 -107 35
-108 358 0 359 0 0 848 c0 947 1 925 -70 1069 -73 148 -214 263 -408 333 -225
82 -595 117 -937 89z m565 -1557 l0 -88 -52 -31 c-29 -18 -89 -44 -133 -60
-75 -25 -91 -27 -245 -28 -153 0 -168 2 -207 23 -56 29 -77 63 -77 121 1 64
26 108 77 132 38 17 69 19 340 19 l297 0 0 -88z"/>
<path d="M15855 4289 c-618 -50 -908 -278 -918 -719 l-2 -95 376 -3 375 -2 23
55 c37 90 89 119 243 137 73 8 127 8 209 0 207 -21 258 -70 259 -249 l0 -81
-457 -5 c-412 -4 -468 -7 -553 -25 -196 -42 -305 -94 -406 -196 -77 -77 -119
-151 -150 -266 -25 -91 -26 -345 -1 -445 40 -157 136 -296 265 -382 241 -160
667 -176 1016 -36 141 55 222 107 313 199 l83 83 -23 -47 -24 -47 35 -107 35
-108 358 0 359 0 0 848 c0 947 1 925 -70 1069 -73 148 -214 263 -408 333 -225
82 -595 117 -937 89z m565 -1557 l0 -88 -52 -31 c-29 -18 -89 -44 -133 -60
-75 -25 -91 -27 -245 -28 -153 0 -168 2 -207 23 -56 29 -77 63 -77 121 1 64
26 108 77 132 38 17 69 19 340 19 l297 0 0 -88z"/>
<path d="M18905 4294 c-198 -29 -297 -75 -415 -193 -48 -47 -109 -120 -136
-163 -27 -42 -55 -84 -61 -95 -7 -10 1 13 17 50 l30 69 -15 121 c-8 67 -15
127 -15 134 0 10 -85 13 -415 13 l-415 0 0 -1140 0 -1140 430 0 430 0 0 628
c0 401 4 649 11 686 15 81 42 138 89 190 57 61 124 88 234 94 248 13 348 -88
363 -365 l6 -103 400 0 400 0 -6 213 c-8 284 -38 430 -123 602 -127 259 -342
389 -659 399 -66 3 -133 2 -150 0z"/>
<path d="M1662 4270 c-89 -20 -115 -129 -48 -207 l23 -27 -1 58 c0 53 2 61 31
86 21 19 48 31 80 36 73 10 85 20 43 37 -49 20 -90 25 -128 17z"/>
<path d="M1388 4180 c-98 -65 -179 -187 -194 -292 l-6 -43 23 35 c85 133 134
203 178 259 68 84 67 86 -1 41z"/>
<path d="M4281 4134 c-115 -99 -134 -291 -43 -439 35 -57 81 -103 212 -215 63
-53 179 -163 258 -244 110 -114 142 -141 142 -124 0 98 -99 437 -166 569 -43
87 -169 282 -227 354 -50 62 -119 135 -127 135 -4 0 -25 -16 -49 -36z"/>
<path d="M1418 3951 c-35 -32 -80 -87 -101 -122 -41 -70 -97 -231 -97 -281 0
-28 5 -22 56 58 30 49 91 140 135 203 44 62 78 115 76 117 -2 2 -20 -10 -40
-27 -20 -17 -37 -26 -37 -21 0 5 18 37 40 70 22 34 38 62 35 62 -2 0 -33 -26
-67 -59z"/>
<path d="M2575 3653 c-73 -38 -90 -75 -61 -132 19 -36 40 -53 58 -46 35 14 66
107 53 164 -8 35 -9 36 -50 14z"/>
<path d="M1398 3610 c-62 -165 -61 -326 4 -509 38 -109 55 -141 141 -275 123
-192 170 -315 235 -619 23 -103 45 -194 50 -203 6 -10 16 29 30 123 50 316 51
377 5 513 -33 100 -64 152 -199 335 -188 254 -231 354 -242 560 l-7 120 -17
-45z"/>
<path d="M2365 3449 c-38 -17 -91 -33 -117 -36 -28 -3 -48 -11 -48 -18 0 -25
42 -64 95 -91 46 -22 65 -26 115 -22 49 3 66 10 90 33 52 49 49 129 -6 154
-36 16 -51 14 -129 -20z"/>
<path d="M1710 3444 c0 -48 37 -182 71 -254 31 -66 168 -279 194 -300 12 -10
12 -4 -1 40 -8 29 -13 54 -11 57 9 8 107 -139 142 -212 37 -77 61 -160 71
-248 4 -32 10 -60 14 -62 14 -9 30 84 30 178 0 182 -43 268 -233 465 -156 161
-188 201 -239 296 -33 63 -38 68 -38 40z"/>
<path d="M1013 3452 c-21 -3 -23 -9 -22 -60 l1 -57 24 54 c14 29 23 56 22 60
-2 3 -13 5 -25 3z"/>
<path d="M1196 3303 c-21 -128 6 -291 69 -420 31 -64 147 -210 168 -212 4 -1
-2 17 -13 39 -11 23 -25 53 -30 68 -9 25 -7 24 24 -11 19 -21 61 -77 95 -124
109 -154 61 -41 -79 182 -116 186 -178 316 -199 419 -9 47 -20 88 -23 91 -3 3
-8 -11 -12 -32z"/>
<path d="M2630 3256 c0 -4 7 -36 16 -70 12 -46 15 -92 12 -186 -4 -111 -8
-136 -40 -227 -54 -157 -105 -238 -286 -459 -62 -76 -142 -205 -142 -229 0 -4
37 26 83 67 45 40 115 98 154 127 223 163 335 386 319 634 -7 100 -26 185 -60
260 -24 52 -55 99 -56 83z"/>
<path d="M2426 3130 c4 -37 -1 -95 -14 -175 -12 -66 -24 -149 -27 -185 -4 -36
-15 -103 -26 -149 -11 -46 -18 -86 -16 -87 7 -7 68 87 98 150 73 155 70 371
-5 478 -16 22 -16 21 -10 -32z"/>
<path d="M1029 3023 l-34 -68 -3 -1027 -2 -1028 230 0 230 0 0 39 c0 60 34 94
100 101 80 8 95 33 94 158 0 103 -18 211 -85 502 -36 159 -45 184 -95 271 -30
53 -66 131 -80 175 -32 95 -49 118 -40 54 l7 -45 -52 55 c-74 80 -164 221
-200 314 -61 157 -73 286 -44 465 9 52 14 96 11 98 -2 2 -19 -26 -37 -64z"/>
<path d="M2701 2469 c-32 -128 -82 -254 -147 -376 -29 -56 -54 -106 -54 -110
0 -14 73 63 115 122 103 145 145 299 116 429 -5 23 -10 13 -30 -65z"/>
<path d="M3335 2269 c-51 -12 -145 -60 -265 -136 -125 -79 -226 -133 -332
-178 -101 -43 -84 -11 -158 -290 -87 -328 -102 -411 -109 -598 l-6 -167 211 0
211 0 6 41 c3 23 16 52 28 65 24 26 92 49 115 40 8 -3 28 -3 45 1 28 5 36 16
69 87 85 182 73 250 -69 400 -109 117 -156 191 -192 308 -17 55 -29 101 -27
102 7 6 246 110 343 149 173 70 287 62 359 -23 l26 -32 -48 -31 c-54 -36 -106
-109 -123 -170 -6 -23 -9 -78 -7 -122 5 -81 13 -104 88 -235 38 -66 30 -101
-93 -374 l-76 -168 47 7 c163 24 434 124 592 217 111 65 240 160 289 211 l34
36 -22 34 c-31 51 -97 108 -182 157 -302 176 -344 219 -433 448 -25 65 -60
135 -78 156 -55 68 -137 89 -243 65z"/>
<path d="M2121 1610 c-40 -29 -94 -101 -107 -143 -6 -18 -7 -18 -30 4 -13 12
-26 20 -28 18 -3 -2 -9 -121 -15 -264 -6 -143 -15 -275 -20 -292 -9 -31 -8
-33 14 -33 18 0 22 4 18 19 -13 52 43 131 92 131 19 0 22 -4 17 -22 -5 -20 -3
-19 32 8 32 25 34 29 16 32 -25 4 -25 12 0 70 26 64 36 109 54 240 17 122 21
262 8 262 -5 0 -28 -14 -51 -30z"/>
<path d="M10210 1585 c-85 -28 -173 -32 -225 -11 l-35 15 0 -63 0 -64 40 -16
c57 -23 125 -20 210 9 84 29 145 32 197 10 19 -8 37 -15 39 -15 2 0 4 29 4 63
0 60 -2 65 -27 76 -53 24 -123 23 -203 -4z"/>
<path d="M13424 1596 c-56 -25 -68 -102 -22 -143 31 -28 104 -25 129 6 60 73
-20 176 -107 137z"/>
<path d="M17563 1603 c-50 -9 -81 -94 -50 -134 36 -47 97 -51 138 -10 65 66 7
161 -88 144z"/>
<path d="M6644 1546 c-107 -25 -178 -75 -206 -145 -14 -35 -13 -139 2 -176 23
-61 89 -111 175 -134 22 -5 92 -15 155 -21 189 -18 220 -34 220 -110 0 -83
-56 -115 -200 -115 -126 0 -173 18 -205 78 l-20 38 -75 -3 -75 -3 3 -30 c13
-143 119 -214 332 -222 196 -8 319 32 383 124 24 33 31 55 35 111 5 79 -7 128
-45 173 -50 59 -126 83 -313 99 -66 6 -132 15 -145 20 -40 15 -65 47 -65 83 0
73 55 102 195 101 111 0 161 -20 188 -76 l19 -38 79 0 80 0 -7 38 c-16 98 -74
166 -167 197 -71 23 -262 29 -343 11z"/>
<path d="M8050 1135 l0 -415 85 0 85 0 0 415 0 415 -85 0 -85 0 0 -415z"/>
<path d="M12550 1130 l0 -410 85 0 84 0 3 148 3 147 253 3 252 2 0 75 0 75
-252 2 -253 3 -3 108 -3 107 266 0 265 0 0 75 0 75 -350 0 -350 0 0 -410z"/>
<path d="M7490 1334 c-149 -39 -239 -172 -228 -338 11 -169 132 -283 310 -294
156 -9 268 50 330 175 28 58 32 75 32 147 0 96 -28 170 -88 229 -85 85 -222
116 -356 81z m190 -156 c62 -32 93 -91 88 -171 -7 -94 -60 -148 -156 -155
-130 -9 -213 90 -182 217 26 110 145 162 250 109z"/>
<path d="M9350 1335 c-150 -42 -239 -174 -228 -339 6 -83 33 -148 85 -201 39
-40 124 -85 160 -85 33 0 35 -14 8 -62 -14 -23 -25 -46 -25 -50 0 -5 29 -8 65
-8 54 0 66 -3 75 -20 8 -14 8 -26 -1 -41 -9 -17 -17 -20 -44 -16 -27 4 -36 1
-53 -23 -19 -25 -19 -30 -6 -41 25 -20 107 -23 142 -5 90 47 79 190 -17 216
-54 14 -44 33 24 47 73 16 121 40 163 81 37 38 71 104 72 140 0 21 -4 22 -79
22 l-79 0 -21 -35 c-38 -66 -139 -85 -221 -42 -57 29 -80 73 -80 153 0 97 53
159 146 170 70 9 137 -21 161 -70 l17 -36 78 0 c87 0 88 1 66 72 -17 56 -87
131 -148 157 -67 29 -186 36 -260 16z"/>
<path d="M10091 1335 c-150 -42 -240 -174 -229 -334 9 -125 77 -224 186 -274
64 -29 225 -31 292 -4 96 40 159 113 186 218 39 154 -33 312 -172 376 -68 31
-187 39 -263 18z m189 -157 c65 -33 92 -84 87 -165 -5 -100 -57 -154 -155
-161 -71 -5 -130 21 -160 70 -96 161 63 339 228 256z"/>
<path d="M10873 1340 c-101 -21 -200 -110 -228 -203 -35 -117 -10 -252 60
-335 101 -117 332 -137 472 -41 39 28 93 101 93 127 0 8 -25 12 -78 12 -67 0
-79 -3 -90 -21 -31 -49 -151 -65 -221 -30 -40 21 -66 53 -77 95 l-6 26 247 0
248 0 -5 79 c-8 136 -77 238 -187 276 -56 20 -171 27 -228 15z m182 -140 c32
-20 60 -64 67 -105 3 -19 -3 -20 -159 -23 -159 -2 -163 -2 -163 18 0 41 49
108 90 123 39 14 133 7 165 -13z"/>
<path d="M11595 1344 c-145 -23 -220 -107 -201 -226 16 -98 76 -133 262 -153
132 -13 164 -27 164 -69 -1 -50 -43 -70 -142 -70 -82 0 -121 16 -133 54 -6 18
-15 20 -81 20 -73 0 -74 0 -74 -26 0 -39 29 -92 64 -119 84 -64 313 -74 423
-19 79 40 97 68 101 157 6 133 -40 167 -258 191 -143 16 -162 25 -162 72 0 47
32 64 122 64 63 0 82 -4 104 -21 14 -11 26 -27 26 -35 0 -11 17 -14 79 -14
l79 0 -9 41 c-17 74 -48 109 -119 134 -45 16 -190 27 -245 19z"/>
<path d="M13999 1337 c-52 -15 -91 -42 -127 -90 -20 -26 -23 -28 -17 -9 4 13
4 39 0 58 l-6 34 -79 0 -80 0 0 -305 0 -305 85 0 85 0 0 183 c0 200 7 230 62
270 37 27 122 34 171 14 70 -30 77 -55 77 -274 l0 -193 85 0 85 0 0 208 c0
227 -8 276 -54 336 -51 68 -185 102 -287 73z"/>
<path d="M14650 1335 c-36 -8 -76 -23 -90 -33 -39 -29 -70 -82 -70 -118 l0
-34 73 0 c65 0 73 2 82 22 17 38 52 49 143 46 74 -3 86 -6 103 -27 12 -15 19
-39 19 -66 l0 -42 -158 -5 c-138 -4 -164 -7 -205 -27 -143 -69 -118 -301 36
-340 103 -25 235 0 308 59 l39 31 0 -25 c0 -51 7 -56 82 -56 l69 0 -3 253 -3
254 -27 36 c-39 50 -115 77 -237 82 -64 3 -118 0 -161 -10z m258 -412 c-3 -43
-6 -48 -43 -67 -58 -30 -181 -35 -214 -9 -30 24 -32 74 -6 103 16 18 31 20
142 20 l124 0 -3 -47z"/>
<path d="M15545 1341 c-51 -13 -92 -39 -126 -80 l-34 -39 3 54 4 54 -86 0 -86
0 0 -305 0 -305 84 0 84 0 4 188 c3 213 10 238 78 272 78 40 174 19 217 -47
15 -23 18 -55 21 -220 l4 -193 85 0 85 0 -4 218 c-4 198 -6 221 -27 267 -27
61 -54 91 -104 117 -43 21 -153 32 -202 19z"/>
<path d="M16225 1337 c-73 -19 -107 -40 -159 -98 -54 -60 -76 -123 -76 -220 0
-129 61 -234 168 -286 51 -25 67 -28 162 -28 88 0 113 4 155 23 65 30 112 75
141 137 39 82 37 85 -55 85 -79 0 -79 0 -99 -33 -27 -47 -81 -70 -151 -65
-102 7 -155 66 -156 173 0 77 28 125 91 155 82 40 171 16 219 -58 20 -31 22
-31 98 -32 74 0 77 1 77 23 0 38 -49 125 -92 161 -22 19 -61 42 -87 51 -63 22
-175 27 -236 12z"/>
<path d="M16973 1340 c-100 -21 -189 -96 -224 -190 -28 -74 -24 -214 9 -277
34 -66 78 -110 140 -140 52 -25 67 -28 163 -28 101 0 109 2 175 35 53 27 76
46 102 84 48 72 45 76 -48 76 -70 0 -81 -2 -90 -21 -26 -48 -154 -66 -220 -30
-38 20 -80 73 -80 102 0 18 13 19 246 19 l247 0 -5 80 c-4 62 -11 92 -34 137
-32 63 -99 122 -162 142 -50 16 -168 22 -219 11z m176 -138 c37 -20 71 -72 71
-109 0 -23 0 -23 -160 -23 -160 0 -160 0 -160 23 0 37 34 89 71 109 45 24 133
24 178 0z"/>
<path d="M18118 1340 c-46 -14 -95 -49 -117 -83 l-21 -32 0 53 0 52 -80 0 -80
0 0 -305 0 -305 80 0 80 0 0 160 c0 191 10 247 51 286 27 26 37 29 94 29 56 0
68 -3 90 -25 15 -16 28 -43 33 -70 l7 -45 78 -3 77 -3 0 49 c0 120 -62 217
-153 240 -52 14 -99 14 -139 2z"/>
<path d="M18697 1340 c-109 -19 -167 -68 -182 -152 l-7 -38 76 0 c72 0 77 2
88 25 15 33 65 48 150 43 62 -3 73 -7 94 -31 16 -19 24 -41 24 -66 l0 -38
-159 -5 c-142 -4 -163 -7 -207 -29 -62 -31 -86 -65 -92 -131 -12 -151 75 -228
245 -215 76 6 145 31 202 74 19 15 31 22 28 16 -4 -6 -4 -25 -1 -42 l7 -31 73
0 74 0 0 228 c0 125 -4 243 -10 261 -14 51 -66 99 -125 117 -61 18 -212 26
-278 14z m243 -414 c0 -43 -1 -45 -52 -70 -70 -35 -180 -37 -215 -4 -29 27
-30 71 -3 98 18 18 33 20 145 20 l125 0 0 -44z"/>
<path d="M19400 1336 c-118 -25 -170 -80 -170 -180 0 -129 54 -169 251 -190
149 -16 169 -24 169 -71 0 -50 -32 -68 -123 -69 -83 -1 -130 15 -145 50 -11
22 -17 24 -88 24 l-76 0 7 -37 c11 -62 41 -100 103 -130 53 -26 65 -28 182
-28 152 0 211 17 264 75 79 87 52 234 -51 277 -18 7 -82 18 -141 23 -143 14
-180 24 -188 55 -15 59 22 85 122 85 72 0 119 -18 129 -50 6 -18 15 -20 82
-20 l75 0 -7 38 c-4 20 -15 51 -25 67 -48 79 -214 115 -370 81z"/>
<path d="M8360 1114 c0 -245 5 -275 62 -339 50 -57 114 -79 207 -73 76 6 120
25 174 76 l37 36 0 -47 0 -47 85 0 85 0 0 305 0 305 -85 0 -85 0 0 -177 c0
-203 -11 -246 -72 -283 -42 -25 -137 -27 -178 -4 -58 35 -65 60 -68 272 l-4
192 -79 0 -79 0 0 -216z"/>
<path d="M13380 1025 l0 -305 85 0 85 0 0 305 0 305 -85 0 -85 0 0 -305z"/>
<path d="M17510 1025 l0 -305 80 0 80 0 0 305 0 305 -80 0 -80 0 0 -305z"/>
</g>
</svg>
