<svg xmlns="http://www.w3.org/2000/svg" viewBox="0 0 1985 553" width="1985" height="553">
  <path d="M 1750,419 L 1750,481 L 1767,481 L 1767,419 Z M 1338,419 L 1337,420 L 1337,480 L 1338,481 L 1354,481 L 1354,419 Z M 835,419 L 835,461 L 836,462 L 836,466 L 837,467 L 837,469 L 838,470 L 838,471 L 840,473 L 840,474 L 844,478 L 845,478 L 847,480 L 848,480 L 849,481 L 852,481 L 853,482 L 868,482 L 869,481 L 871,481 L 872,480 L 873,480 L 874,479 L 875,479 L 876,478 L 877,478 L 882,473 L 884,475 L 884,481 L 900,481 L 900,419 L 883,419 L 883,457 L 882,458 L 882,459 L 881,460 L 881,461 L 877,465 L 876,465 L 875,466 L 874,466 L 873,467 L 870,467 L 869,468 L 865,468 L 864,467 L 861,467 L 860,466 L 859,466 L 858,465 L 857,465 L 855,463 L 855,462 L 854,461 L 854,460 L 853,459 L 853,457 L 852,456 L 852,419 Z M 1929,422 L 1925,426 L 1925,427 L 1923,430 L 1923,432 L 1922,433 L 1922,442 L 1923,443 L 1923,445 L 1924,446 L 1924,447 L 1929,452 L 1930,452 L 1931,453 L 1933,453 L 1934,454 L 1936,454 L 1937,455 L 1944,455 L 1945,456 L 1955,456 L 1956,457 L 1960,457 L 1961,458 L 1962,458 L 1965,461 L 1965,464 L 1964,465 L 1964,466 L 1962,468 L 1961,468 L 1960,469 L 1958,469 L 1957,470 L 1946,470 L 1945,469 L 1942,469 L 1940,467 L 1939,467 L 1938,466 L 1938,465 L 1936,462 L 1922,462 L 1921,463 L 1922,464 L 1922,468 L 1923,469 L 1923,471 L 1924,472 L 1924,473 L 1929,478 L 1930,478 L 1933,480 L 1935,480 L 1936,481 L 1939,481 L 1940,482 L 1962,482 L 1963,481 L 1967,481 L 1968,480 L 1970,480 L 1971,479 L 1972,479 L 1974,477 L 1975,477 L 1979,473 L 1979,472 L 1980,471 L 1980,469 L 1981,468 L 1981,456 L 1980,455 L 1980,453 L 1975,448 L 1974,448 L 1971,446 L 1969,446 L 1968,445 L 1963,445 L 1962,444 L 1951,444 L 1950,443 L 1944,443 L 1943,442 L 1942,442 L 1941,441 L 1940,441 L 1939,440 L 1939,438 L 1938,437 L 1938,436 L 1939,435 L 1939,434 L 1941,432 L 1942,432 L 1945,430 L 1957,430 L 1958,431 L 1960,431 L 1964,435 L 1964,437 L 1980,437 L 1979,436 L 1979,431 L 1978,430 L 1978,429 L 1977,428 L 1977,427 L 1975,425 L 1975,424 L 1974,423 L 1973,423 L 1971,421 L 1970,421 L 1969,420 L 1967,420 L 1966,419 L 1963,419 L 1962,418 L 1954,418 L 1953,417 L 1950,417 L 1949,418 L 1940,418 L 1939,419 L 1936,419 L 1935,420 L 1933,420 L 1932,421 L 1931,421 L 1930,422 Z M 1856,423 L 1853,426 L 1853,427 L 1852,428 L 1852,430 L 1851,431 L 1851,437 L 1866,437 L 1866,436 L 1867,435 L 1867,434 L 1869,432 L 1870,432 L 1871,431 L 1874,431 L 1875,430 L 1884,430 L 1885,431 L 1888,431 L 1889,432 L 1890,432 L 1892,434 L 1892,435 L 1893,436 L 1893,444 L 1892,445 L 1862,445 L 1861,446 L 1858,446 L 1857,447 L 1856,447 L 1855,448 L 1854,448 L 1850,452 L 1850,453 L 1849,454 L 1849,455 L 1848,456 L 1848,459 L 1847,460 L 1847,466 L 1848,467 L 1848,470 L 1849,471 L 1849,473 L 1851,475 L 1851,476 L 1854,479 L 1855,479 L 1856,480 L 1857,480 L 1858,481 L 1860,481 L 1861,482 L 1877,482 L 1878,481 L 1881,481 L 1882,480 L 1884,480 L 1885,479 L 1886,479 L 1887,478 L 1888,478 L 1889,477 L 1890,477 L 1894,473 L 1895,474 L 1895,478 L 1896,479 L 1896,481 L 1910,481 L 1910,431 L 1909,430 L 1909,429 L 1908,428 L 1908,427 L 1903,422 L 1902,422 L 1901,421 L 1900,421 L 1899,420 L 1897,420 L 1896,419 L 1893,419 L 1892,418 L 1882,418 L 1881,417 L 1879,417 L 1878,418 L 1868,418 L 1867,419 L 1864,419 L 1863,420 L 1861,420 L 1860,421 L 1859,421 L 1857,423 Z M 1865,459 L 1868,456 L 1869,456 L 1870,455 L 1892,455 L 1893,456 L 1893,464 L 1892,465 L 1891,465 L 1889,467 L 1888,467 L 1887,468 L 1885,468 L 1884,469 L 1879,469 L 1878,470 L 1873,470 L 1872,469 L 1869,469 L 1868,468 L 1867,468 L 1866,467 L 1866,466 L 1865,465 Z M 1832,421 L 1831,421 L 1830,420 L 1829,420 L 1828,419 L 1826,419 L 1825,418 L 1819,418 L 1818,417 L 1817,417 L 1816,418 L 1811,418 L 1810,419 L 1808,419 L 1807,420 L 1806,420 L 1804,422 L 1803,422 L 1801,424 L 1801,425 L 1799,427 L 1798,426 L 1798,421 L 1797,420 L 1797,419 L 1781,419 L 1781,481 L 1798,481 L 1798,443 L 1799,442 L 1799,440 L 1801,438 L 1801,437 L 1804,434 L 1805,434 L 1806,433 L 1809,433 L 1810,432 L 1814,432 L 1815,433 L 1818,433 L 1820,435 L 1821,435 L 1822,436 L 1822,437 L 1824,439 L 1824,442 L 1825,443 L 1825,447 L 1840,447 L 1840,434 L 1839,433 L 1839,431 L 1838,430 L 1838,429 L 1837,428 L 1837,427 L 1836,426 L 1836,425 Z M 1690,420 L 1689,421 L 1688,421 L 1687,422 L 1686,422 L 1683,425 L 1682,425 L 1680,427 L 1680,428 L 1677,431 L 1677,432 L 1676,433 L 1676,434 L 1675,435 L 1675,436 L 1674,437 L 1674,439 L 1673,440 L 1673,443 L 1672,444 L 1672,456 L 1673,457 L 1673,460 L 1674,461 L 1674,463 L 1675,464 L 1675,465 L 1676,466 L 1676,467 L 1677,468 L 1677,469 L 1680,472 L 1680,473 L 1682,475 L 1683,475 L 1686,478 L 1687,478 L 1688,479 L 1689,479 L 1690,480 L 1692,480 L 1693,481 L 1696,481 L 1697,482 L 1715,482 L 1716,481 L 1719,481 L 1720,480 L 1721,480 L 1722,479 L 1723,479 L 1724,478 L 1725,478 L 1726,477 L 1727,477 L 1734,470 L 1734,469 L 1735,468 L 1735,467 L 1736,466 L 1736,464 L 1737,463 L 1736,462 L 1721,462 L 1720,463 L 1720,464 L 1717,467 L 1716,467 L 1715,468 L 1714,468 L 1713,469 L 1701,469 L 1700,468 L 1698,468 L 1697,467 L 1696,467 L 1692,463 L 1692,462 L 1691,461 L 1691,460 L 1690,459 L 1690,457 L 1689,456 L 1690,455 L 1739,455 L 1739,446 L 1738,445 L 1738,440 L 1737,439 L 1737,437 L 1736,436 L 1736,435 L 1735,434 L 1735,433 L 1734,432 L 1734,431 L 1732,429 L 1732,428 L 1728,424 L 1727,424 L 1725,422 L 1724,422 L 1723,421 L 1722,421 L 1721,420 L 1720,420 L 1719,419 L 1716,419 L 1715,418 L 1708,418 L 1707,417 L 1705,417 L 1704,418 L 1696,418 L 1695,419 L 1693,419 L 1692,420 Z M 1689,443 L 1690,442 L 1690,440 L 1691,439 L 1691,438 L 1692,437 L 1692,436 L 1696,432 L 1697,432 L 1698,431 L 1701,431 L 1702,430 L 1710,430 L 1711,431 L 1713,431 L 1714,432 L 1715,432 L 1719,436 L 1719,437 L 1720,438 L 1720,439 L 1721,440 L 1721,442 L 1722,443 L 1722,444 L 1721,445 L 1690,445 L 1689,444 Z M 1616,420 L 1615,421 L 1614,421 L 1612,423 L 1611,423 L 1603,431 L 1603,432 L 1602,433 L 1602,434 L 1601,435 L 1601,436 L 1600,437 L 1600,439 L 1599,440 L 1599,444 L 1598,445 L 1598,455 L 1599,456 L 1599,460 L 1600,461 L 1600,463 L 1601,464 L 1601,465 L 1602,466 L 1602,467 L 1603,468 L 1603,469 L 1607,473 L 1607,474 L 1608,474 L 1611,477 L 1612,477 L 1614,479 L 1615,479 L 1616,480 L 1618,480 L 1619,481 L 1622,481 L 1623,482 L 1641,482 L 1642,481 L 1645,481 L 1646,480 L 1647,480 L 1648,479 L 1649,479 L 1650,478 L 1651,478 L 1653,476 L 1654,476 L 1659,471 L 1659,470 L 1660,469 L 1660,468 L 1661,467 L 1661,466 L 1662,465 L 1662,464 L 1663,463 L 1663,460 L 1664,459 L 1664,457 L 1647,457 L 1647,459 L 1645,461 L 1645,462 L 1642,465 L 1641,465 L 1640,466 L 1639,466 L 1638,467 L 1626,467 L 1625,466 L 1624,466 L 1623,465 L 1622,465 L 1618,461 L 1618,460 L 1616,458 L 1616,456 L 1615,455 L 1615,445 L 1616,444 L 1616,442 L 1618,440 L 1618,439 L 1622,435 L 1623,435 L 1624,434 L 1625,434 L 1626,433 L 1638,433 L 1639,434 L 1640,434 L 1641,435 L 1642,435 L 1646,439 L 1646,440 L 1647,441 L 1647,443 L 1664,443 L 1664,441 L 1663,440 L 1663,437 L 1662,436 L 1662,435 L 1661,434 L 1661,433 L 1660,432 L 1660,431 L 1659,430 L 1659,429 L 1653,423 L 1652,423 L 1651,422 L 1650,422 L 1649,421 L 1648,421 L 1647,420 L 1646,420 L 1645,419 L 1642,419 L 1641,418 L 1634,418 L 1633,417 L 1631,417 L 1630,418 L 1623,418 L 1622,419 L 1619,419 L 1618,420 Z M 1583,427 L 1577,421 L 1576,421 L 1573,419 L 1571,419 L 1570,418 L 1564,418 L 1563,417 L 1561,417 L 1560,418 L 1553,418 L 1552,419 L 1550,419 L 1549,420 L 1548,420 L 1547,421 L 1546,421 L 1540,427 L 1538,424 L 1538,419 L 1522,419 L 1522,481 L 1539,481 L 1539,444 L 1540,443 L 1540,441 L 1541,440 L 1541,439 L 1546,434 L 1548,434 L 1549,433 L 1551,433 L 1552,432 L 1558,432 L 1559,433 L 1561,433 L 1562,434 L 1563,434 L 1564,435 L 1565,435 L 1567,437 L 1567,438 L 1569,440 L 1569,442 L 1570,443 L 1570,481 L 1587,481 L 1587,438 L 1586,437 L 1586,434 L 1585,433 L 1585,431 L 1584,430 L 1584,429 L 1583,428 Z M 1455,422 L 1450,427 L 1450,428 L 1449,429 L 1449,432 L 1448,433 L 1448,437 L 1463,437 L 1464,436 L 1464,435 L 1468,431 L 1471,431 L 1472,430 L 1482,430 L 1483,431 L 1486,431 L 1490,435 L 1490,436 L 1491,437 L 1491,444 L 1490,445 L 1460,445 L 1459,446 L 1456,446 L 1455,447 L 1454,447 L 1453,448 L 1452,448 L 1450,450 L 1449,450 L 1449,451 L 1447,453 L 1447,454 L 1446,455 L 1446,457 L 1445,458 L 1445,469 L 1446,470 L 1446,472 L 1447,473 L 1447,474 L 1452,479 L 1453,479 L 1454,480 L 1455,480 L 1456,481 L 1458,481 L 1459,482 L 1475,482 L 1476,481 L 1479,481 L 1480,480 L 1481,480 L 1482,479 L 1484,479 L 1485,478 L 1486,478 L 1488,476 L 1489,476 L 1491,474 L 1492,475 L 1492,476 L 1493,477 L 1493,480 L 1494,481 L 1508,481 L 1508,434 L 1507,433 L 1507,430 L 1506,429 L 1506,428 L 1505,427 L 1505,426 L 1502,423 L 1501,423 L 1499,421 L 1498,421 L 1497,420 L 1495,420 L 1494,419 L 1491,419 L 1490,418 L 1480,418 L 1479,417 L 1477,417 L 1476,418 L 1466,418 L 1465,419 L 1462,419 L 1461,420 L 1459,420 L 1458,421 L 1457,421 L 1456,422 Z M 1462,460 L 1463,459 L 1463,458 L 1465,456 L 1467,456 L 1468,455 L 1490,455 L 1491,456 L 1491,463 L 1488,466 L 1487,466 L 1486,467 L 1485,467 L 1484,468 L 1482,468 L 1481,469 L 1477,469 L 1476,470 L 1470,470 L 1469,469 L 1466,469 L 1463,466 L 1463,465 L 1462,464 Z M 1429,426 L 1425,422 L 1424,422 L 1422,420 L 1420,420 L 1419,419 L 1417,419 L 1416,418 L 1410,418 L 1409,417 L 1407,417 L 1406,418 L 1400,418 L 1399,419 L 1397,419 L 1396,420 L 1395,420 L 1394,421 L 1393,421 L 1391,423 L 1390,423 L 1388,425 L 1388,426 L 1386,428 L 1385,427 L 1385,419 L 1369,419 L 1368,420 L 1368,480 L 1369,481 L 1385,481 L 1385,448 L 1386,447 L 1386,443 L 1387,442 L 1387,440 L 1393,434 L 1394,434 L 1395,433 L 1398,433 L 1399,432 L 1404,432 L 1405,433 L 1408,433 L 1409,434 L 1410,434 L 1415,439 L 1415,440 L 1416,441 L 1416,444 L 1417,445 L 1417,481 L 1434,481 L 1434,441 L 1433,440 L 1433,435 L 1432,434 L 1432,432 L 1431,431 L 1431,430 L 1430,429 L 1430,428 L 1429,427 Z M 1146,422 L 1141,427 L 1141,428 L 1139,431 L 1139,443 L 1140,444 L 1140,446 L 1142,448 L 1142,449 L 1143,450 L 1144,450 L 1146,452 L 1147,452 L 1150,454 L 1153,454 L 1154,455 L 1161,455 L 1162,456 L 1172,456 L 1173,457 L 1177,457 L 1178,458 L 1179,458 L 1181,460 L 1181,466 L 1179,468 L 1178,468 L 1177,469 L 1174,469 L 1173,470 L 1163,470 L 1162,469 L 1159,469 L 1158,468 L 1157,468 L 1154,465 L 1154,464 L 1153,463 L 1153,462 L 1138,462 L 1138,466 L 1139,467 L 1139,470 L 1140,471 L 1140,472 L 1142,474 L 1142,475 L 1144,477 L 1145,477 L 1147,479 L 1149,479 L 1152,481 L 1155,481 L 1156,482 L 1179,482 L 1180,481 L 1183,481 L 1184,480 L 1186,480 L 1187,479 L 1188,479 L 1189,478 L 1190,478 L 1192,476 L 1193,476 L 1194,475 L 1194,474 L 1196,472 L 1196,471 L 1197,470 L 1197,468 L 1198,467 L 1198,457 L 1197,456 L 1197,454 L 1196,453 L 1196,452 L 1192,448 L 1191,448 L 1188,446 L 1185,446 L 1184,445 L 1179,445 L 1178,444 L 1168,444 L 1167,443 L 1161,443 L 1160,442 L 1158,442 L 1155,439 L 1155,435 L 1159,431 L 1161,431 L 1162,430 L 1173,430 L 1174,431 L 1176,431 L 1177,432 L 1178,432 L 1180,434 L 1180,435 L 1181,436 L 1181,437 L 1196,437 L 1196,433 L 1195,432 L 1195,430 L 1194,429 L 1194,428 L 1193,427 L 1193,426 L 1189,422 L 1188,422 L 1187,421 L 1186,421 L 1183,419 L 1180,419 L 1179,418 L 1170,418 L 1169,417 L 1167,417 L 1166,418 L 1157,418 L 1156,419 L 1153,419 L 1152,420 L 1150,420 L 1149,421 L 1148,421 L 1147,422 Z M 1080,420 L 1079,421 L 1078,421 L 1076,423 L 1075,423 L 1072,426 L 1071,426 L 1071,427 L 1067,431 L 1067,432 L 1066,433 L 1066,434 L 1065,435 L 1065,436 L 1064,437 L 1064,439 L 1063,440 L 1063,444 L 1062,445 L 1062,455 L 1063,456 L 1063,460 L 1064,461 L 1064,463 L 1065,464 L 1065,465 L 1066,466 L 1066,467 L 1067,468 L 1067,469 L 1070,472 L 1070,473 L 1072,475 L 1073,475 L 1075,477 L 1076,477 L 1078,479 L 1079,479 L 1080,480 L 1082,480 L 1083,481 L 1086,481 L 1087,482 L 1105,482 L 1106,481 L 1109,481 L 1110,480 L 1111,480 L 1112,479 L 1113,479 L 1114,478 L 1115,478 L 1116,477 L 1117,477 L 1124,470 L 1124,469 L 1125,468 L 1125,467 L 1126,466 L 1126,464 L 1127,463 L 1126,462 L 1111,462 L 1110,463 L 1110,464 L 1107,467 L 1106,467 L 1105,468 L 1104,468 L 1103,469 L 1091,469 L 1090,468 L 1088,468 L 1087,467 L 1086,467 L 1082,463 L 1082,462 L 1081,461 L 1081,460 L 1080,459 L 1080,457 L 1079,456 L 1080,455 L 1129,455 L 1129,445 L 1128,444 L 1128,440 L 1127,439 L 1127,437 L 1126,436 L 1126,435 L 1125,434 L 1125,433 L 1124,432 L 1124,431 L 1122,429 L 1122,428 L 1118,424 L 1117,424 L 1115,422 L 1114,422 L 1113,421 L 1112,421 L 1111,420 L 1110,420 L 1109,419 L 1106,419 L 1105,418 L 1098,418 L 1097,417 L 1095,417 L 1094,418 L 1086,418 L 1085,419 L 1083,419 L 1082,420 Z M 1079,443 L 1080,442 L 1080,440 L 1081,439 L 1081,438 L 1082,437 L 1082,436 L 1085,433 L 1086,433 L 1088,431 L 1091,431 L 1092,430 L 1100,430 L 1101,431 L 1103,431 L 1104,432 L 1105,432 L 1109,436 L 1109,437 L 1111,439 L 1111,441 L 1112,442 L 1112,444 L 1111,445 L 1080,445 L 1079,444 Z M 1006,419 L 1005,420 L 1004,420 L 1003,421 L 1002,421 L 1001,422 L 1000,422 L 998,424 L 997,424 L 992,429 L 992,430 L 990,432 L 990,433 L 989,434 L 989,435 L 988,436 L 988,437 L 987,438 L 987,440 L 986,441 L 986,446 L 985,447 L 985,453 L 986,454 L 986,459 L 987,460 L 987,462 L 988,463 L 988,464 L 989,465 L 989,466 L 990,467 L 990,468 L 992,470 L 992,471 L 997,476 L 998,476 L 1000,478 L 1001,478 L 1002,479 L 1003,479 L 1004,480 L 1006,480 L 1007,481 L 1009,481 L 1010,482 L 1028,482 L 1029,481 L 1032,481 L 1033,480 L 1035,480 L 1036,479 L 1037,479 L 1039,477 L 1040,477 L 1043,474 L 1044,474 L 1045,473 L 1045,472 L 1048,469 L 1048,468 L 1050,466 L 1050,465 L 1051,464 L 1051,462 L 1052,461 L 1052,458 L 1053,457 L 1053,443 L 1052,442 L 1052,439 L 1051,438 L 1051,436 L 1050,435 L 1050,434 L 1048,432 L 1048,431 L 1046,429 L 1046,428 L 1043,425 L 1042,425 L 1039,422 L 1038,422 L 1037,421 L 1036,421 L 1035,420 L 1033,420 L 1032,419 L 1030,419 L 1029,418 L 1021,418 L 1020,417 L 1018,417 L 1017,418 L 1010,418 L 1009,419 Z M 1013,433 L 1025,433 L 1026,434 L 1027,434 L 1028,435 L 1029,435 L 1034,440 L 1034,441 L 1035,442 L 1035,443 L 1036,444 L 1036,449 L 1037,450 L 1036,451 L 1036,456 L 1035,457 L 1035,458 L 1034,459 L 1034,460 L 1029,465 L 1028,465 L 1027,466 L 1026,466 L 1025,467 L 1014,467 L 1013,466 L 1011,466 L 1009,464 L 1008,464 L 1005,461 L 1005,460 L 1004,459 L 1004,458 L 1003,457 L 1003,456 L 1002,455 L 1002,445 L 1003,444 L 1003,443 L 1004,442 L 1004,441 L 1005,440 L 1005,439 L 1009,435 L 1010,435 L 1011,434 L 1012,434 Z M 944,417 L 943,418 L 936,418 L 935,419 L 932,419 L 931,420 L 930,420 L 929,421 L 928,421 L 927,422 L 924,423 L 917,430 L 917,431 L 915,433 L 915,434 L 914,435 L 914,437 L 913,438 L 913,440 L 912,441 L 912,447 L 911,448 L 911,453 L 912,454 L 912,459 L 913,460 L 913,462 L 914,463 L 914,465 L 915,466 L 915,467 L 917,469 L 917,470 L 924,477 L 925,477 L 930,480 L 932,480 L 933,481 L 936,481 L 939,483 L 939,484 L 938,485 L 938,486 L 937,487 L 937,488 L 934,493 L 946,493 L 949,496 L 949,499 L 947,501 L 943,501 L 942,500 L 941,500 L 937,505 L 937,507 L 938,508 L 939,508 L 940,509 L 944,509 L 945,510 L 947,510 L 948,509 L 951,509 L 952,508 L 955,507 L 956,506 L 956,505 L 958,503 L 958,500 L 959,499 L 959,496 L 958,495 L 958,492 L 957,491 L 957,490 L 955,488 L 954,488 L 951,486 L 948,486 L 947,485 L 947,484 L 949,482 L 954,482 L 955,481 L 958,481 L 959,480 L 960,480 L 961,479 L 962,479 L 963,478 L 966,477 L 972,471 L 972,470 L 974,468 L 974,467 L 975,466 L 975,464 L 976,463 L 976,461 L 977,460 L 977,457 L 961,457 L 960,458 L 959,461 L 955,465 L 954,465 L 951,467 L 940,467 L 939,466 L 937,466 L 935,464 L 934,464 L 932,462 L 932,461 L 930,459 L 930,458 L 929,457 L 929,455 L 928,454 L 928,446 L 929,445 L 929,443 L 930,442 L 931,439 L 934,436 L 935,436 L 937,434 L 938,434 L 939,433 L 951,433 L 952,434 L 955,435 L 959,439 L 959,440 L 961,443 L 977,443 L 977,440 L 976,439 L 976,436 L 975,435 L 975,434 L 974,433 L 973,430 L 966,423 L 965,423 L 963,421 L 962,421 L 961,420 L 959,420 L 958,419 L 956,419 L 955,418 L 947,418 L 946,417 Z M 746,419 L 745,420 L 744,420 L 743,421 L 742,421 L 741,422 L 740,422 L 738,424 L 737,424 L 731,430 L 731,431 L 730,432 L 730,433 L 728,435 L 728,437 L 727,438 L 727,440 L 726,441 L 726,445 L 725,446 L 725,454 L 726,455 L 726,459 L 727,460 L 727,462 L 728,463 L 728,464 L 729,465 L 729,466 L 730,467 L 730,468 L 732,470 L 732,471 L 737,476 L 738,476 L 740,478 L 741,478 L 742,479 L 743,479 L 744,480 L 746,480 L 747,481 L 749,481 L 750,482 L 768,482 L 769,481 L 772,481 L 773,480 L 774,480 L 775,479 L 777,479 L 779,477 L 780,477 L 783,474 L 784,474 L 785,473 L 785,472 L 788,469 L 788,468 L 790,466 L 790,464 L 791,463 L 791,462 L 792,461 L 792,458 L 793,457 L 793,443 L 792,442 L 792,439 L 791,438 L 791,436 L 790,435 L 790,434 L 788,432 L 788,431 L 785,428 L 785,427 L 783,425 L 782,425 L 780,423 L 779,423 L 777,421 L 776,421 L 775,420 L 773,420 L 772,419 L 769,419 L 768,418 L 761,418 L 760,417 L 758,417 L 757,418 L 750,418 L 749,419 Z M 753,433 L 765,433 L 766,434 L 767,434 L 768,435 L 769,435 L 774,440 L 774,441 L 775,442 L 775,443 L 776,444 L 776,456 L 775,457 L 775,458 L 774,459 L 774,460 L 769,465 L 768,465 L 767,466 L 766,466 L 765,467 L 754,467 L 753,466 L 751,466 L 749,464 L 748,464 L 745,461 L 745,460 L 744,459 L 744,458 L 743,457 L 743,456 L 742,455 L 742,445 L 743,444 L 743,442 L 745,440 L 745,439 L 749,435 L 750,435 L 751,434 L 752,434 Z M 1255,398 L 1255,481 L 1272,481 L 1272,452 L 1273,451 L 1322,451 L 1322,435 L 1273,435 L 1272,434 L 1272,414 L 1273,413 L 1325,413 L 1325,398 Z M 804,397 L 804,481 L 821,481 L 821,397 Z M 653,401 L 651,403 L 650,403 L 645,408 L 645,409 L 643,412 L 643,415 L 642,416 L 642,426 L 643,427 L 643,430 L 644,431 L 645,434 L 650,439 L 651,439 L 658,443 L 661,443 L 662,444 L 667,444 L 668,445 L 677,445 L 678,446 L 687,446 L 688,447 L 692,447 L 693,448 L 694,448 L 698,452 L 698,453 L 699,454 L 699,458 L 698,459 L 698,461 L 693,466 L 691,466 L 690,467 L 688,467 L 687,468 L 670,468 L 669,467 L 666,467 L 665,466 L 662,465 L 658,461 L 658,460 L 657,459 L 657,457 L 641,457 L 641,462 L 642,463 L 642,466 L 643,467 L 644,470 L 646,472 L 646,473 L 649,476 L 650,476 L 657,480 L 659,480 L 660,481 L 664,481 L 665,482 L 690,482 L 691,481 L 696,481 L 697,480 L 702,479 L 703,478 L 706,477 L 708,475 L 709,475 L 714,469 L 714,468 L 715,467 L 715,465 L 716,464 L 716,460 L 717,459 L 717,453 L 716,452 L 716,448 L 715,447 L 715,445 L 714,444 L 714,443 L 709,438 L 708,438 L 706,436 L 705,436 L 704,435 L 702,435 L 701,434 L 699,434 L 698,433 L 693,433 L 692,432 L 684,432 L 683,431 L 673,431 L 672,430 L 668,430 L 667,429 L 665,429 L 664,428 L 663,428 L 660,424 L 660,417 L 664,413 L 665,413 L 666,412 L 668,412 L 669,411 L 687,411 L 688,412 L 691,412 L 692,413 L 693,413 L 698,418 L 698,419 L 699,420 L 699,422 L 715,422 L 715,417 L 714,416 L 714,413 L 713,412 L 711,407 L 706,402 L 705,402 L 700,399 L 698,399 L 697,398 L 694,398 L 693,397 L 686,397 L 685,396 L 674,396 L 673,397 L 665,397 L 664,398 L 661,398 L 660,399 L 658,399 L 657,400 L 655,400 L 654,401 Z M 1755,392 L 1754,393 L 1753,393 L 1750,396 L 1750,398 L 1749,399 L 1749,402 L 1750,403 L 1750,405 L 1753,408 L 1754,408 L 1755,409 L 1762,409 L 1763,408 L 1764,408 L 1767,405 L 1767,403 L 1768,402 L 1768,399 L 1767,398 L 1767,396 L 1764,393 L 1763,393 L 1762,392 Z M 1340,393 L 1338,395 L 1338,396 L 1337,397 L 1337,404 L 1338,405 L 1338,406 L 1340,408 L 1341,408 L 1342,409 L 1350,409 L 1352,407 L 1353,407 L 1353,406 L 1354,405 L 1354,404 L 1355,403 L 1355,398 L 1354,397 L 1354,396 L 1350,392 L 1342,392 L 1341,393 Z M 1044,395 L 1043,395 L 1041,393 L 1039,393 L 1038,392 L 1033,392 L 1032,391 L 1030,391 L 1029,392 L 1025,392 L 1024,393 L 1021,393 L 1020,394 L 1019,394 L 1018,395 L 1016,395 L 1015,396 L 1011,396 L 1010,397 L 1004,397 L 1003,396 L 1000,396 L 999,395 L 998,395 L 997,394 L 996,394 L 995,393 L 994,393 L 994,406 L 995,406 L 996,407 L 997,407 L 998,408 L 999,408 L 1000,409 L 1005,409 L 1006,410 L 1009,410 L 1010,409 L 1014,409 L 1015,408 L 1017,408 L 1018,407 L 1020,407 L 1021,406 L 1023,406 L 1024,405 L 1027,405 L 1028,404 L 1034,404 L 1035,405 L 1038,405 L 1039,406 L 1040,406 L 1041,407 L 1042,407 L 1043,408 L 1044,408 Z M 198,154 L 199,155 L 201,155 L 202,156 L 203,156 L 205,158 L 206,158 L 207,159 L 211,159 L 212,160 L 215,160 L 217,162 L 218,162 L 220,164 L 220,165 L 222,167 L 222,168 L 224,170 L 224,166 L 223,165 L 223,162 L 222,161 L 222,160 L 221,159 L 221,158 L 220,157 L 220,156 L 219,155 L 219,148 L 218,147 L 218,146 L 217,145 L 216,145 L 215,144 L 215,151 L 214,152 L 212,152 L 211,151 L 208,151 L 207,150 L 206,150 L 205,151 L 202,151 L 201,152 L 200,152 Z M 1956,141 L 1942,131 L 1930,126 L 1916,123 L 1905,123 L 1904,122 L 1886,123 L 1870,127 L 1858,133 L 1842,148 L 1834,159 L 1833,158 L 1833,148 L 1832,147 L 1830,129 L 1748,129 L 1748,358 L 1833,358 L 1833,239 L 1834,238 L 1834,227 L 1837,216 L 1842,208 L 1846,204 L 1855,199 L 1863,197 L 1876,197 L 1877,198 L 1882,198 L 1891,202 L 1896,207 L 1901,217 L 1903,226 L 1904,244 L 1983,244 L 1983,205 L 1978,179 L 1969,158 Z M 1831,161 L 1832,160 L 1833,161 L 1832,162 Z M 1832,159 L 1833,158 L 1834,159 L 1834,160 L 1833,161 L 1832,160 Z M 1510,149 L 1501,161 L 1495,176 L 1493,187 L 1493,205 L 1569,205 L 1572,196 L 1580,189 L 1591,186 L 1620,186 L 1633,190 L 1639,196 L 1641,201 L 1641,218 L 1640,219 L 1565,219 L 1544,221 L 1524,226 L 1505,236 L 1495,246 L 1487,260 L 1483,276 L 1482,295 L 1484,311 L 1488,324 L 1496,338 L 1506,348 L 1519,356 L 1541,363 L 1577,364 L 1595,361 L 1614,355 L 1630,347 L 1647,333 L 1655,358 L 1727,358 L 1727,190 L 1721,167 L 1715,157 L 1707,148 L 1691,137 L 1670,129 L 1645,124 L 1604,122 L 1574,124 L 1548,129 L 1527,137 Z M 1647,333 L 1648,332 L 1649,333 L 1648,334 Z M 1648,331 L 1649,330 L 1650,331 L 1649,332 Z M 1570,281 L 1571,280 L 1571,279 L 1572,278 L 1572,277 L 1577,272 L 1579,272 L 1580,271 L 1583,271 L 1584,270 L 1640,270 L 1641,271 L 1641,288 L 1640,289 L 1639,289 L 1638,290 L 1637,290 L 1635,292 L 1634,292 L 1633,293 L 1632,293 L 1631,294 L 1630,294 L 1629,295 L 1627,295 L 1626,296 L 1625,296 L 1624,297 L 1622,297 L 1621,298 L 1618,298 L 1617,299 L 1613,299 L 1612,300 L 1604,300 L 1603,301 L 1591,301 L 1590,300 L 1584,300 L 1583,299 L 1581,299 L 1580,298 L 1578,298 L 1577,297 L 1576,297 L 1572,293 L 1572,292 L 1571,291 L 1571,290 L 1570,289 Z M 982,149 L 973,161 L 967,176 L 965,187 L 965,205 L 1041,205 L 1044,196 L 1052,189 L 1063,186 L 1092,186 L 1105,190 L 1111,196 L 1113,201 L 1113,218 L 1112,219 L 1037,219 L 1016,221 L 996,226 L 977,236 L 967,246 L 959,260 L 955,276 L 954,295 L 956,311 L 960,324 L 968,338 L 978,348 L 991,356 L 1013,363 L 1049,364 L 1067,361 L 1086,355 L 1102,347 L 1119,333 L 1127,358 L 1199,358 L 1199,190 L 1193,167 L 1187,157 L 1179,148 L 1163,137 L 1142,129 L 1117,124 L 1076,122 L 1046,124 L 1020,129 L 999,137 Z M 1119,333 L 1120,332 L 1121,333 L 1120,334 Z M 1120,331 L 1121,330 L 1122,331 L 1121,332 Z M 1042,281 L 1043,280 L 1043,279 L 1044,278 L 1044,277 L 1049,272 L 1051,272 L 1052,271 L 1055,271 L 1056,270 L 1112,270 L 1113,271 L 1113,288 L 1112,289 L 1111,289 L 1110,290 L 1109,290 L 1107,292 L 1106,292 L 1105,293 L 1104,293 L 1103,294 L 1102,294 L 1101,295 L 1099,295 L 1098,296 L 1097,296 L 1096,297 L 1094,297 L 1093,298 L 1090,298 L 1089,299 L 1085,299 L 1084,300 L 1076,300 L 1075,301 L 1063,301 L 1062,300 L 1056,300 L 1055,299 L 1053,299 L 1052,298 L 1050,298 L 1049,297 L 1048,297 L 1044,293 L 1044,292 L 1043,291 L 1043,290 L 1042,289 Z M 639,50 L 639,358 L 798,358 L 828,355 L 858,347 L 881,336 L 902,321 L 918,305 L 935,280 L 945,256 L 950,235 L 952,219 L 952,188 L 949,167 L 940,138 L 926,113 L 906,90 L 894,80 L 871,66 L 844,56 L 825,52 L 808,50 Z M 728,128 L 803,128 L 804,129 L 809,129 L 810,130 L 813,130 L 814,131 L 817,131 L 820,133 L 822,133 L 823,134 L 830,137 L 836,142 L 837,142 L 845,150 L 845,151 L 849,155 L 849,156 L 851,158 L 851,159 L 857,170 L 857,172 L 858,173 L 858,175 L 859,176 L 859,178 L 860,179 L 860,183 L 861,184 L 861,189 L 862,190 L 862,218 L 861,219 L 861,224 L 860,225 L 860,228 L 859,229 L 859,232 L 858,233 L 858,235 L 856,238 L 856,240 L 855,241 L 853,246 L 851,248 L 850,251 L 847,254 L 847,255 L 835,267 L 834,267 L 829,271 L 828,271 L 821,275 L 819,275 L 818,276 L 816,276 L 815,277 L 813,277 L 812,278 L 808,278 L 807,279 L 801,279 L 800,280 L 728,280 L 727,279 L 727,129 Z M 1220,45 L 1220,358 L 1304,358 L 1306,337 L 1312,344 L 1324,353 L 1343,361 L 1359,364 L 1386,364 L 1403,361 L 1415,357 L 1432,348 L 1440,342 L 1455,327 L 1463,316 L 1475,292 L 1481,269 L 1483,236 L 1480,212 L 1473,190 L 1461,168 L 1442,147 L 1428,137 L 1404,127 L 1379,123 L 1357,124 L 1333,131 L 1318,140 L 1303,155 L 1302,153 L 1305,149 L 1305,45 Z M 1335,199 L 1338,199 L 1339,198 L 1344,198 L 1345,197 L 1357,197 L 1358,198 L 1363,198 L 1364,199 L 1367,199 L 1368,200 L 1370,200 L 1371,201 L 1372,201 L 1373,202 L 1374,202 L 1375,203 L 1376,203 L 1378,205 L 1379,205 L 1383,209 L 1384,209 L 1385,210 L 1385,211 L 1390,216 L 1390,217 L 1391,218 L 1391,219 L 1392,220 L 1392,221 L 1393,222 L 1393,223 L 1394,224 L 1394,225 L 1395,226 L 1395,228 L 1396,229 L 1396,232 L 1397,233 L 1397,253 L 1396,254 L 1396,258 L 1395,259 L 1395,261 L 1394,262 L 1394,263 L 1393,264 L 1393,265 L 1392,266 L 1392,267 L 1391,268 L 1391,269 L 1389,271 L 1389,272 L 1380,281 L 1379,281 L 1377,283 L 1376,283 L 1374,285 L 1372,285 L 1371,286 L 1370,286 L 1369,287 L 1367,287 L 1366,288 L 1363,288 L 1362,289 L 1356,289 L 1355,290 L 1347,290 L 1346,289 L 1340,289 L 1339,288 L 1336,288 L 1335,287 L 1333,287 L 1332,286 L 1331,286 L 1330,285 L 1329,285 L 1328,284 L 1327,284 L 1326,283 L 1325,283 L 1322,280 L 1321,280 L 1314,273 L 1314,272 L 1312,270 L 1312,269 L 1310,267 L 1310,266 L 1309,265 L 1309,264 L 1308,263 L 1308,261 L 1307,260 L 1307,258 L 1306,257 L 1306,254 L 1305,253 L 1305,234 L 1306,233 L 1306,230 L 1307,229 L 1307,226 L 1308,225 L 1308,224 L 1309,223 L 1309,222 L 1310,221 L 1310,220 L 1311,219 L 1311,218 L 1313,216 L 1313,215 L 1323,205 L 1324,205 L 1326,203 L 1327,203 L 1328,202 L 1329,202 L 1330,201 L 1332,201 L 1333,200 L 1334,200 Z M 1299,158 L 1300,157 L 1301,158 L 1300,159 Z M 1300,156 L 1301,155 L 1302,156 L 1301,157 Z M 1301,155 L 1302,154 L 1303,155 L 1302,156 Z M 17,13 L 7,25 L 0,45 L 0,507 L 4,521 L 13,535 L 27,546 L 45,552 L 506,552 L 531,542 L 544,528 L 552,506 L 552,46 L 542,21 L 525,6 L 507,0 L 45,0 L 31,4 Z M 217,388 L 218,389 L 218,401 L 217,402 L 217,411 L 216,412 L 216,418 L 215,419 L 215,424 L 214,425 L 214,429 L 213,430 L 213,433 L 212,434 L 212,436 L 211,437 L 211,438 L 210,439 L 210,440 L 209,441 L 209,443 L 208,444 L 208,445 L 211,445 L 212,446 L 210,448 L 209,448 L 207,450 L 206,449 L 206,447 L 204,447 L 203,448 L 201,448 L 200,449 L 199,449 L 196,452 L 196,454 L 195,455 L 195,462 L 194,463 L 192,463 L 191,462 L 191,460 L 192,459 L 192,454 L 193,453 L 193,431 L 194,430 L 194,410 L 195,409 L 195,404 L 196,403 L 200,407 L 201,406 L 201,405 L 202,404 L 202,403 L 203,402 L 203,401 L 204,400 L 204,399 L 213,390 L 214,390 L 215,389 L 216,389 Z M 250,352 L 251,351 L 252,352 L 251,353 Z M 218,344 L 219,343 L 220,344 L 219,345 Z M 429,411 L 429,412 L 418,422 L 396,437 L 378,446 L 352,455 L 340,457 L 339,458 L 334,458 L 333,457 L 336,452 L 336,450 L 351,417 L 351,406 L 345,397 L 341,388 L 341,384 L 340,383 L 341,369 L 345,360 L 354,351 L 357,350 L 358,348 L 352,341 L 348,339 L 345,339 L 344,338 L 330,339 L 316,344 L 298,353 L 296,353 L 285,358 L 288,365 L 289,372 L 293,381 L 300,391 L 314,405 L 320,417 L 320,426 L 312,445 L 308,448 L 297,448 L 294,449 L 289,455 L 289,461 L 288,462 L 280,462 L 279,463 L 247,463 L 246,462 L 246,459 L 247,458 L 247,449 L 246,448 L 247,429 L 248,428 L 250,414 L 251,413 L 257,386 L 259,382 L 259,379 L 264,362 L 267,359 L 276,356 L 296,346 L 319,331 L 333,325 L 345,324 L 346,325 L 349,325 L 354,328 L 360,335 L 365,346 L 368,356 L 372,364 L 379,373 L 390,382 L 415,396 L 422,402 Z M 272,297 L 273,298 L 273,303 L 274,304 L 274,308 L 273,309 L 273,317 L 272,318 L 272,321 L 271,322 L 271,324 L 270,325 L 270,327 L 269,328 L 269,329 L 268,330 L 268,331 L 267,332 L 267,333 L 266,334 L 266,335 L 264,337 L 264,338 L 262,340 L 262,341 L 260,343 L 260,344 L 252,352 L 251,351 L 251,350 L 252,349 L 252,348 L 253,347 L 253,346 L 255,344 L 255,343 L 256,342 L 256,341 L 257,340 L 257,339 L 258,338 L 258,337 L 259,336 L 259,335 L 260,334 L 260,333 L 261,332 L 261,330 L 262,329 L 262,328 L 263,327 L 263,325 L 264,324 L 264,323 L 265,322 L 265,320 L 266,319 L 266,317 L 267,316 L 267,314 L 268,313 L 268,310 L 269,309 L 269,307 L 270,306 L 270,303 L 271,302 L 271,298 Z M 155,295 L 156,294 L 157,295 L 156,296 Z M 154,293 L 155,292 L 156,293 L 155,294 Z M 153,291 L 154,290 L 155,291 L 155,292 L 154,293 L 153,292 Z M 141,284 L 142,283 L 143,284 L 142,285 Z M 140,282 L 141,281 L 142,282 L 142,283 L 141,284 L 140,283 Z M 196,262 L 197,261 L 198,262 L 198,263 L 197,264 L 196,263 Z M 105,245 L 106,246 L 106,250 L 105,251 L 105,257 L 104,258 L 104,268 L 103,269 L 103,274 L 104,275 L 104,283 L 105,284 L 105,288 L 106,289 L 106,292 L 107,293 L 107,295 L 108,296 L 108,297 L 109,298 L 109,300 L 112,305 L 112,307 L 115,311 L 117,316 L 122,322 L 122,323 L 126,327 L 126,328 L 131,333 L 131,334 L 134,336 L 134,331 L 135,330 L 136,331 L 136,333 L 137,334 L 137,336 L 138,337 L 138,339 L 139,340 L 140,345 L 141,346 L 144,353 L 148,358 L 148,359 L 152,366 L 152,369 L 153,370 L 153,373 L 154,374 L 154,378 L 155,379 L 155,382 L 156,383 L 156,386 L 157,387 L 157,391 L 158,392 L 158,395 L 159,396 L 159,400 L 160,401 L 160,405 L 161,406 L 161,410 L 162,411 L 162,415 L 163,416 L 163,422 L 164,423 L 164,431 L 165,432 L 165,435 L 164,436 L 164,441 L 163,442 L 163,444 L 159,448 L 152,448 L 151,449 L 148,450 L 146,452 L 146,453 L 144,456 L 144,462 L 143,463 L 100,463 L 99,462 L 99,257 L 100,256 L 100,255 L 102,252 L 102,250 Z M 243,236 L 244,237 L 244,238 L 245,239 L 245,240 L 246,241 L 246,243 L 247,244 L 247,246 L 248,247 L 248,250 L 249,251 L 249,268 L 248,269 L 248,273 L 247,274 L 247,276 L 246,277 L 246,279 L 245,280 L 245,282 L 244,283 L 244,284 L 243,285 L 243,286 L 242,287 L 242,288 L 240,290 L 240,291 L 239,292 L 239,293 L 236,296 L 236,297 L 235,298 L 234,297 L 234,295 L 235,294 L 235,291 L 236,290 L 236,287 L 237,286 L 237,279 L 238,278 L 238,270 L 239,269 L 239,263 L 240,262 L 240,258 L 241,257 L 241,252 L 242,251 L 242,237 Z M 264,228 L 265,229 L 265,230 L 267,232 L 267,233 L 268,234 L 268,235 L 269,236 L 269,238 L 270,239 L 270,240 L 271,241 L 271,244 L 272,245 L 272,248 L 273,249 L 273,253 L 274,254 L 274,276 L 273,277 L 273,282 L 272,283 L 272,285 L 271,286 L 271,288 L 270,289 L 270,291 L 269,292 L 269,293 L 268,294 L 268,295 L 267,296 L 267,297 L 266,298 L 266,299 L 264,301 L 264,302 L 263,303 L 263,304 L 260,307 L 260,308 L 246,322 L 245,322 L 242,325 L 241,325 L 239,327 L 238,327 L 235,330 L 234,330 L 225,339 L 224,339 L 220,343 L 219,342 L 219,341 L 220,340 L 220,339 L 222,337 L 222,336 L 223,335 L 223,334 L 224,333 L 224,332 L 226,330 L 226,329 L 229,326 L 229,325 L 233,321 L 233,320 L 238,315 L 238,314 L 243,309 L 243,308 L 246,305 L 246,304 L 248,302 L 248,301 L 250,299 L 250,298 L 252,296 L 252,295 L 253,294 L 253,293 L 255,291 L 255,290 L 256,289 L 256,288 L 257,287 L 257,286 L 258,285 L 258,283 L 259,282 L 259,281 L 260,280 L 260,278 L 261,277 L 261,276 L 262,275 L 262,272 L 263,271 L 263,269 L 264,268 L 264,264 L 265,263 L 265,257 L 266,256 L 266,242 L 265,241 L 265,236 L 264,235 L 264,232 L 263,231 L 263,229 Z M 262,227 L 263,226 L 264,227 L 264,228 L 263,229 L 262,228 Z M 120,220 L 121,221 L 121,222 L 122,223 L 122,228 L 123,229 L 123,232 L 124,233 L 124,235 L 125,236 L 125,238 L 126,239 L 126,240 L 127,241 L 127,243 L 128,244 L 128,245 L 129,246 L 129,247 L 130,248 L 130,249 L 131,250 L 131,251 L 132,252 L 132,253 L 134,255 L 134,256 L 135,257 L 135,258 L 136,259 L 136,260 L 138,262 L 138,263 L 140,265 L 140,266 L 141,267 L 141,268 L 143,270 L 143,271 L 145,273 L 145,274 L 146,275 L 146,276 L 148,278 L 148,279 L 149,280 L 149,281 L 151,283 L 151,284 L 152,285 L 152,286 L 153,287 L 153,288 L 154,289 L 154,290 L 153,291 L 151,289 L 151,288 L 148,285 L 148,284 L 145,281 L 145,280 L 142,277 L 142,276 L 137,271 L 137,272 L 138,273 L 138,274 L 139,275 L 139,277 L 140,278 L 140,279 L 141,280 L 141,281 L 140,282 L 138,280 L 137,280 L 134,277 L 134,276 L 131,273 L 131,272 L 129,270 L 129,269 L 127,267 L 127,266 L 126,265 L 126,264 L 125,263 L 125,262 L 124,261 L 124,259 L 123,258 L 123,257 L 122,256 L 122,254 L 121,253 L 121,250 L 120,249 L 120,246 L 119,245 L 119,238 L 118,237 L 118,230 L 119,229 L 119,221 Z M 172,208 L 173,209 L 173,210 L 174,211 L 174,212 L 175,213 L 175,214 L 176,215 L 176,216 L 177,217 L 177,218 L 179,220 L 179,221 L 183,225 L 183,226 L 187,230 L 187,231 L 191,235 L 192,235 L 197,240 L 197,241 L 211,255 L 211,256 L 213,258 L 213,259 L 215,261 L 215,262 L 216,263 L 216,264 L 217,265 L 217,266 L 218,267 L 218,268 L 219,269 L 219,271 L 220,272 L 220,274 L 221,275 L 221,280 L 222,281 L 222,296 L 221,297 L 221,301 L 220,302 L 220,305 L 219,306 L 218,305 L 218,303 L 217,302 L 217,295 L 216,294 L 216,291 L 215,290 L 215,287 L 214,286 L 214,284 L 213,283 L 213,281 L 212,280 L 212,278 L 211,277 L 211,276 L 210,275 L 210,274 L 209,273 L 209,272 L 208,271 L 208,270 L 206,268 L 206,267 L 205,266 L 205,265 L 203,263 L 203,262 L 201,260 L 201,259 L 198,256 L 198,255 L 197,254 L 196,254 L 195,253 L 195,254 L 196,255 L 196,258 L 197,259 L 197,261 L 196,262 L 194,260 L 194,259 L 192,257 L 192,256 L 189,253 L 189,252 L 187,250 L 187,249 L 185,247 L 185,246 L 183,244 L 183,243 L 182,242 L 182,241 L 180,239 L 180,238 L 179,237 L 179,236 L 178,235 L 178,234 L 177,233 L 177,232 L 176,231 L 176,229 L 175,228 L 175,227 L 174,226 L 174,224 L 173,223 L 173,220 L 172,219 L 172,216 L 171,215 L 171,209 Z M 102,207 L 103,208 L 103,210 L 102,211 L 102,212 L 101,213 L 101,215 L 100,216 L 99,215 L 99,208 L 100,207 Z M 253,217 L 251,219 L 251,220 L 249,222 L 248,222 L 247,223 L 246,223 L 245,224 L 242,224 L 241,225 L 239,225 L 238,224 L 233,224 L 232,223 L 230,223 L 229,222 L 228,222 L 226,220 L 225,220 L 220,215 L 220,214 L 219,213 L 219,212 L 220,211 L 227,211 L 228,210 L 231,210 L 232,209 L 233,209 L 234,208 L 235,208 L 236,207 L 238,207 L 239,206 L 240,206 L 241,205 L 244,205 L 245,204 L 246,204 L 247,205 L 249,205 L 252,208 L 252,209 L 253,210 Z M 189,205 L 190,204 L 191,205 L 190,206 Z M 275,192 L 276,191 L 277,192 L 276,193 Z M 140,190 L 141,191 L 141,201 L 142,202 L 142,209 L 143,210 L 143,214 L 144,215 L 144,218 L 145,219 L 145,221 L 147,224 L 147,226 L 148,227 L 148,228 L 149,229 L 149,230 L 150,231 L 150,232 L 151,233 L 151,234 L 153,236 L 153,237 L 154,238 L 154,239 L 156,241 L 156,242 L 158,244 L 158,245 L 161,248 L 161,249 L 164,252 L 164,253 L 168,257 L 168,258 L 171,261 L 171,262 L 173,264 L 173,265 L 176,268 L 176,269 L 178,271 L 178,272 L 179,273 L 179,274 L 181,276 L 181,277 L 182,278 L 182,279 L 184,282 L 184,284 L 186,287 L 186,289 L 187,290 L 187,292 L 188,293 L 188,297 L 189,298 L 189,319 L 188,320 L 188,326 L 187,327 L 187,332 L 186,333 L 186,338 L 185,339 L 185,345 L 184,346 L 184,352 L 183,353 L 182,352 L 182,350 L 181,349 L 181,347 L 180,346 L 180,343 L 179,342 L 179,338 L 178,337 L 178,333 L 177,332 L 177,328 L 176,327 L 176,324 L 175,323 L 175,319 L 174,318 L 174,315 L 173,314 L 173,312 L 172,311 L 172,308 L 171,307 L 171,305 L 170,304 L 170,302 L 169,301 L 169,299 L 168,298 L 168,296 L 166,293 L 166,291 L 165,290 L 165,289 L 164,288 L 164,287 L 163,286 L 163,285 L 162,284 L 162,283 L 161,282 L 161,281 L 160,280 L 160,279 L 158,277 L 158,276 L 157,275 L 157,274 L 155,272 L 155,271 L 153,269 L 153,268 L 151,266 L 151,265 L 149,263 L 149,262 L 148,261 L 148,260 L 147,259 L 147,258 L 146,257 L 146,256 L 144,254 L 144,252 L 143,251 L 143,250 L 142,249 L 142,248 L 140,245 L 140,243 L 139,242 L 139,240 L 138,239 L 138,236 L 137,235 L 137,232 L 136,231 L 136,227 L 135,226 L 135,205 L 136,204 L 136,200 L 137,199 L 137,197 L 138,196 L 138,194 L 139,193 L 139,191 Z M 140,188 L 141,187 L 142,188 L 141,189 Z M 261,185 L 262,186 L 262,197 L 261,198 L 261,200 L 259,202 L 259,203 L 257,205 L 255,205 L 251,201 L 251,200 L 250,199 L 250,198 L 249,197 L 249,194 L 250,193 L 250,192 L 252,190 L 253,190 L 255,188 L 256,188 L 257,187 L 258,187 L 259,186 L 260,186 Z M 104,175 L 105,176 L 105,177 L 104,178 L 104,181 L 103,182 L 103,184 L 102,185 L 102,187 L 101,188 L 101,190 L 100,191 L 99,190 L 99,177 L 100,176 L 101,176 L 102,175 Z M 118,165 L 119,164 L 120,165 L 120,166 L 119,167 L 118,166 Z M 145,162 L 146,161 L 147,162 L 146,163 Z M 146,161 L 147,160 L 148,161 L 147,162 Z M 144,155 L 145,156 L 144,157 L 144,158 L 143,159 L 143,160 L 142,161 L 142,162 L 141,163 L 141,164 L 140,165 L 140,166 L 141,166 L 145,162 L 146,163 L 146,164 L 144,166 L 144,167 L 141,170 L 141,171 L 139,173 L 139,174 L 137,176 L 137,177 L 135,179 L 135,180 L 133,182 L 133,183 L 131,185 L 131,186 L 129,188 L 129,189 L 127,191 L 127,192 L 126,193 L 126,194 L 124,196 L 124,197 L 123,198 L 123,199 L 122,200 L 121,199 L 121,197 L 122,196 L 122,192 L 123,191 L 123,188 L 124,187 L 124,185 L 125,184 L 125,182 L 126,181 L 126,179 L 127,178 L 127,177 L 128,176 L 128,175 L 129,174 L 129,173 L 130,172 L 130,171 L 131,170 L 131,169 L 133,167 L 133,166 L 136,163 L 136,162 L 143,155 Z M 144,155 L 145,154 L 146,155 L 145,156 Z M 145,154 L 146,153 L 147,154 L 146,155 Z M 431,136 L 434,136 L 436,138 L 436,139 L 444,147 L 444,148 L 448,152 L 448,153 L 450,155 L 450,156 L 453,159 L 453,160 L 455,162 L 455,163 L 457,165 L 457,166 L 458,167 L 458,168 L 460,170 L 460,171 L 462,173 L 462,174 L 463,175 L 463,176 L 465,178 L 465,179 L 466,180 L 466,181 L 467,182 L 467,183 L 468,184 L 468,185 L 469,186 L 469,187 L 470,188 L 470,189 L 471,190 L 471,191 L 472,192 L 472,194 L 473,195 L 473,196 L 474,197 L 474,199 L 475,200 L 475,202 L 476,203 L 476,205 L 477,206 L 477,208 L 478,209 L 478,212 L 479,213 L 479,215 L 480,216 L 480,219 L 481,220 L 481,223 L 482,224 L 482,228 L 483,229 L 483,234 L 484,235 L 484,240 L 485,241 L 485,242 L 484,243 L 480,239 L 480,238 L 454,212 L 453,212 L 446,205 L 445,205 L 440,200 L 439,200 L 425,186 L 425,185 L 423,183 L 423,182 L 422,181 L 422,180 L 421,179 L 421,178 L 420,177 L 420,176 L 419,175 L 419,173 L 418,172 L 418,167 L 417,166 L 417,159 L 418,158 L 418,154 L 419,153 L 419,151 L 420,150 L 420,148 L 422,146 L 422,145 L 424,143 L 424,142 L 428,138 L 429,138 Z M 142,132 L 143,133 L 139,137 L 139,138 L 135,142 L 135,143 L 133,145 L 133,146 L 130,149 L 130,150 L 128,152 L 128,153 L 126,155 L 126,156 L 124,158 L 124,159 L 123,160 L 123,161 L 121,163 L 121,164 L 120,165 L 119,164 L 119,160 L 120,159 L 120,158 L 121,157 L 121,155 L 122,154 L 122,153 L 123,152 L 123,151 L 124,150 L 124,149 L 125,148 L 125,147 L 129,143 L 129,142 L 133,138 L 134,138 L 138,134 L 139,134 L 141,132 Z M 142,132 L 143,131 L 144,132 L 143,133 Z M 182,129 L 181,130 L 176,130 L 175,131 L 171,131 L 170,132 L 169,132 L 168,133 L 167,133 L 164,136 L 164,137 L 163,138 L 163,146 L 162,147 L 159,144 L 159,143 L 158,142 L 158,141 L 157,140 L 157,133 L 158,132 L 158,131 L 159,130 L 159,129 L 160,128 L 161,128 L 163,126 L 164,126 L 165,125 L 174,125 L 175,126 L 177,126 L 178,127 L 179,127 L 180,128 L 181,128 Z M 147,119 L 148,118 L 149,119 L 148,120 Z M 148,118 L 153,114 L 157,113 L 160,111 L 163,111 L 164,110 L 170,110 L 171,109 L 173,109 L 174,110 L 180,110 L 191,115 L 201,126 L 204,126 L 205,125 L 213,125 L 214,126 L 216,126 L 220,128 L 227,135 L 227,136 L 230,140 L 230,132 L 231,131 L 231,128 L 234,125 L 236,125 L 240,127 L 248,135 L 254,146 L 254,150 L 253,151 L 248,151 L 246,149 L 246,144 L 244,147 L 244,153 L 247,159 L 255,169 L 255,170 L 257,172 L 261,179 L 260,180 L 241,180 L 240,181 L 237,181 L 236,182 L 233,182 L 230,180 L 229,181 L 230,182 L 230,184 L 234,187 L 237,187 L 238,188 L 242,189 L 245,192 L 245,195 L 244,197 L 236,204 L 234,204 L 230,206 L 221,206 L 220,205 L 218,205 L 213,200 L 211,196 L 211,193 L 210,192 L 210,188 L 211,187 L 211,184 L 212,183 L 212,180 L 213,179 L 213,176 L 214,175 L 211,175 L 210,176 L 202,176 L 198,174 L 194,170 L 191,164 L 190,158 L 189,157 L 189,151 L 190,150 L 190,146 L 193,140 L 192,140 L 187,145 L 183,152 L 183,154 L 181,158 L 181,161 L 180,162 L 180,168 L 179,169 L 180,183 L 181,184 L 182,190 L 187,200 L 190,203 L 190,204 L 188,205 L 186,203 L 185,203 L 178,196 L 173,187 L 173,185 L 171,181 L 170,168 L 171,167 L 171,162 L 172,161 L 173,155 L 178,146 L 190,134 L 191,134 L 199,128 L 191,121 L 187,119 L 179,117 L 178,116 L 173,116 L 172,115 L 163,115 L 162,116 L 158,116 L 157,117 L 155,117 L 151,119 L 149,119 Z M 206,105 L 207,104 L 208,105 L 207,106 Z M 150,103 L 151,102 L 152,103 L 151,104 Z M 151,102 L 155,98 L 156,98 L 158,96 L 159,96 L 160,95 L 161,95 L 162,94 L 164,94 L 165,93 L 167,93 L 168,92 L 171,92 L 172,91 L 186,91 L 187,92 L 190,92 L 191,93 L 193,93 L 194,94 L 195,94 L 196,95 L 197,95 L 198,96 L 199,96 L 207,104 L 206,105 L 205,105 L 204,104 L 203,104 L 202,103 L 201,103 L 200,102 L 199,102 L 198,101 L 196,101 L 195,100 L 193,100 L 192,99 L 189,99 L 188,98 L 182,98 L 181,97 L 174,97 L 173,98 L 167,98 L 166,99 L 163,99 L 162,100 L 160,100 L 159,101 L 157,101 L 156,102 L 154,102 L 153,103 L 152,103 Z M 223,91 L 224,90 L 225,91 L 224,92 Z M 180,86 L 181,85 L 182,85 L 183,84 L 187,84 L 188,85 L 192,85 L 193,86 L 195,86 L 196,87 L 198,87 L 199,88 L 200,88 L 202,90 L 203,90 L 205,92 L 206,92 L 211,97 L 211,98 L 210,99 L 209,98 L 208,98 L 206,96 L 205,96 L 204,95 L 203,95 L 202,94 L 201,94 L 200,93 L 199,93 L 198,92 L 197,92 L 196,91 L 194,91 L 193,90 L 192,90 L 191,89 L 189,89 L 188,88 L 185,88 L 184,87 L 181,87 Z M 239,82 L 306,82 L 336,86 L 373,96 L 403,112 L 402,114 L 393,118 L 384,127 L 378,138 L 376,155 L 380,169 L 385,177 L 393,185 L 427,208 L 447,225 L 469,247 L 479,261 L 487,281 L 483,316 L 479,323 L 466,335 L 454,340 L 440,341 L 427,337 L 412,325 L 417,345 L 420,351 L 425,355 L 434,357 L 454,357 L 462,355 L 471,350 L 472,351 L 464,368 L 451,388 L 446,382 L 433,373 L 417,354 L 410,337 L 404,304 L 398,284 L 389,268 L 374,254 L 354,245 L 313,236 L 288,227 L 294,242 L 298,262 L 297,279 L 295,279 L 293,260 L 284,228 L 275,211 L 277,210 L 286,218 L 284,208 L 276,194 L 277,192 L 282,197 L 278,174 L 275,165 L 267,152 L 269,151 L 274,153 L 269,145 L 266,135 L 263,132 L 253,130 L 256,128 L 264,128 L 273,135 L 274,133 L 271,125 L 266,120 L 258,117 L 248,116 L 251,114 L 262,114 L 269,118 L 266,110 L 261,105 L 246,100 L 254,97 L 238,83 Z M 230,82 L 232,82 L 234,84 L 234,86 L 235,87 L 235,98 L 234,99 L 233,98 L 233,93 L 232,92 L 232,89 L 231,88 L 231,86 L 230,85 L 230,84 L 229,83 Z M 214,83 L 215,82 L 218,82 L 223,87 L 223,88 L 224,89 L 224,90 L 223,91 L 219,87 L 218,87 Z M 161,82 L 162,83 L 161,84 L 159,84 L 158,85 L 156,85 L 155,86 L 153,86 L 152,87 L 151,87 L 149,89 L 148,89 L 147,90 L 146,90 L 137,99 L 137,100 L 135,102 L 135,103 L 133,105 L 133,106 L 131,108 L 131,109 L 130,110 L 130,111 L 128,113 L 128,114 L 125,117 L 125,118 L 120,123 L 119,123 L 118,124 L 117,124 L 116,125 L 115,125 L 114,126 L 112,126 L 111,127 L 111,128 L 112,129 L 113,129 L 114,130 L 116,130 L 118,132 L 117,133 L 117,134 L 115,136 L 115,137 L 113,139 L 113,140 L 112,141 L 112,142 L 111,143 L 111,144 L 110,145 L 110,146 L 109,147 L 109,149 L 108,150 L 108,152 L 107,153 L 107,156 L 106,157 L 106,161 L 105,162 L 105,165 L 104,166 L 104,168 L 103,169 L 103,170 L 102,171 L 102,172 L 100,174 L 99,173 L 99,83 L 100,82 Z" fill="#ffffff" fill-rule="evenodd"/>
</svg>